<svg width="16" height="16" viewBox="0 0 16 16" fill="none" xmlns="http://www.w3.org/2000/svg">
<path d="M1.32129 8C1.32129 7.84049 1.35091 7.68327 1.41016 7.52832C1.4694 7.36882 1.55371 7.22982 1.66309 7.11133L5.84668 2.5791C6.05176 2.35579 6.29557 2.18262 6.57812 2.05957C6.86068 1.93652 7.15234 1.875 7.45312 1.875H12.8604C13.1475 1.875 13.4209 1.93424 13.6807 2.05273C13.9404 2.16667 14.166 2.32161 14.3574 2.51758C14.5534 2.70898 14.7083 2.93457 14.8223 3.19434C14.9408 3.4541 15 3.72754 15 4.01465V11.9854C15 12.2725 14.9408 12.5459 14.8223 12.8057C14.7083 13.0654 14.5534 13.2933 14.3574 13.4893C14.166 13.6807 13.9404 13.8356 13.6807 13.9541C13.4209 14.068 13.1475 14.125 12.8604 14.125H7.45312C7.15234 14.125 6.86068 14.0635 6.57812 13.9404C6.29557 13.8174 6.05176 13.6442 5.84668 13.4209L1.66309 8.88867C1.55371 8.77018 1.4694 8.63346 1.41016 8.47852C1.35091 8.32357 1.32129 8.16406 1.32129 8ZM12.8125 13.25C12.9902 13.25 13.1589 13.2158 13.3184 13.1475C13.4779 13.0791 13.6169 12.9857 13.7354 12.8672C13.8584 12.7441 13.9541 12.6029 14.0225 12.4434C14.0908 12.2839 14.125 12.1152 14.125 11.9375V4.0625C14.125 3.88477 14.0908 3.71615 14.0225 3.55664C13.9541 3.39714 13.8584 3.25814 13.7354 3.13965C13.6169 3.0166 13.4779 2.9209 13.3184 2.85254C13.1589 2.78418 12.9902 2.75 12.8125 2.75H7.45312C7.26628 2.75 7.09082 2.78646 6.92676 2.85938C6.7627 2.93229 6.61686 3.03711 6.48926 3.17383L2.30566 7.70605C2.23275 7.78353 2.19629 7.88151 2.19629 8C2.19629 8.11849 2.23275 8.21647 2.30566 8.29395L6.48926 12.8262C6.6123 12.9583 6.75814 13.0632 6.92676 13.1406C7.09538 13.2135 7.27083 13.25 7.45312 13.25H12.8125ZM9.75 8.61523L7.87012 10.4951C7.78353 10.5817 7.68099 10.625 7.5625 10.625C7.44401 10.625 7.34147 10.5817 7.25488 10.4951C7.16829 10.4085 7.125 10.306 7.125 10.1875C7.125 10.069 7.16829 9.96647 7.25488 9.87988L9.13477 8L7.25488 6.12012C7.16829 6.03353 7.125 5.93099 7.125 5.8125C7.125 5.69401 7.16829 5.59147 7.25488 5.50488C7.34147 5.41829 7.44401 5.375 7.5625 5.375C7.68099 5.375 7.78353 5.41829 7.87012 5.50488L9.75 7.37793L11.6299 5.50488C11.7165 5.41829 11.819 5.375 11.9375 5.375C12.056 5.375 12.1585 5.41829 12.2451 5.50488C12.3317 5.59147 12.375 5.69401 12.375 5.8125C12.375 5.93099 12.3317 6.03353 12.2451 6.12012L10.3721 8L12.2451 9.87988C12.3317 9.96647 12.375 10.069 12.375 10.1875C12.375 10.306 12.3317 10.4085 12.2451 10.4951C12.1585 10.5817 12.056 10.625 11.9375 10.625C11.819 10.625 11.7165 10.5817 11.6299 10.4951L9.75 8.61523Z" fill="black" fill-opacity="0.3614"/>
</svg>
