<svg width="16" height="16" viewBox="0 0 16 16" fill="none" xmlns="http://www.w3.org/2000/svg">
<path d="M6.21582 13.25C5.98796 13.25 5.76921 13.2044 5.55957 13.1133C5.35449 13.0176 5.1722 12.8923 5.0127 12.7373C4.85775 12.5778 4.73242 12.3955 4.63672 12.1904C4.54557 11.9808 4.5 11.762 4.5 11.5342V2.71582C4.5 2.48796 4.54557 2.27148 4.63672 2.06641C4.73242 1.85677 4.85775 1.67448 5.0127 1.51953C5.1722 1.36003 5.35449 1.2347 5.55957 1.14355C5.76921 1.04785 5.98796 1 6.21582 1H11.5342C11.762 1 11.9785 1.04785 12.1836 1.14355C12.3932 1.2347 12.5755 1.36003 12.7305 1.51953C12.89 1.67448 13.0153 1.85677 13.1064 2.06641C13.2021 2.27148 13.25 2.48796 13.25 2.71582V11.5342C13.25 11.762 13.2021 11.9808 13.1064 12.1904C13.0153 12.3955 12.89 12.5778 12.7305 12.7373C12.5755 12.8923 12.3932 13.0176 12.1836 13.1133C11.9785 13.2044 11.762 13.25 11.5342 13.25H6.21582ZM11.5 12.375C11.623 12.375 11.737 12.3522 11.8418 12.3066C11.9466 12.2611 12.0378 12.1995 12.1152 12.1221C12.1973 12.04 12.2611 11.9466 12.3066 11.8418C12.3522 11.737 12.375 11.623 12.375 11.5V2.75C12.375 2.63151 12.3522 2.51986 12.3066 2.41504C12.2611 2.30566 12.1973 2.21224 12.1152 2.13477C12.0378 2.05273 11.9443 1.98893 11.835 1.94336C11.7301 1.89779 11.6185 1.875 11.5 1.875H6.25C6.12695 1.875 6.01302 1.89779 5.9082 1.94336C5.80339 1.98893 5.70996 2.05273 5.62793 2.13477C5.55046 2.21224 5.48893 2.30339 5.44336 2.4082C5.39779 2.51302 5.375 2.62695 5.375 2.75V11.5C5.375 11.623 5.39779 11.7393 5.44336 11.8486C5.48893 11.9535 5.55046 12.0446 5.62793 12.1221C5.7054 12.1995 5.79655 12.2611 5.90137 12.3066C6.01074 12.3522 6.12695 12.375 6.25 12.375H11.5ZM5.8125 15C5.38867 15 4.98991 14.9202 4.61621 14.7607C4.24707 14.6012 3.9235 14.3825 3.64551 14.1045C3.36751 13.8265 3.14876 13.5029 2.98926 13.1338C2.82975 12.7601 2.75 12.3613 2.75 11.9375V4.5C2.75 4.18555 2.82747 3.89616 2.98242 3.63184C3.14193 3.36751 3.35612 3.1556 3.625 2.99609V11.9375C3.625 12.2383 3.68197 12.5231 3.7959 12.792C3.90983 13.0563 4.06478 13.2887 4.26074 13.4893C4.46126 13.6852 4.69368 13.8402 4.95801 13.9541C5.22689 14.068 5.51172 14.125 5.8125 14.125H11.2539C11.0944 14.3939 10.8825 14.6081 10.6182 14.7676C10.3538 14.9225 10.0645 15 9.75 15H5.8125Z" fill="black" fill-opacity="0.3614"/>
</svg>
