<svg width="16" height="16" viewBox="0 0 16 16" fill="none" xmlns="http://www.w3.org/2000/svg">
<path d="M1.875 12.3203C1.875 11.9785 1.94336 11.6527 2.08008 11.3428C2.22135 11.0283 2.4082 10.7549 2.64062 10.5225C2.8776 10.2855 3.15104 10.0986 3.46094 9.96191C3.77539 9.82064 4.10352 9.75 4.44531 9.75C4.69141 9.75 4.92383 9.77734 5.14258 9.83203C5.36589 9.88672 5.58464 9.97331 5.79883 10.0918L7.48047 7.50098L3.69336 1.67676C3.64779 1.61296 3.625 1.53548 3.625 1.44434C3.625 1.32585 3.66602 1.22331 3.74805 1.13672C3.83008 1.04557 3.93262 1 4.05566 1C4.12858 1 4.19922 1.01823 4.26758 1.05469C4.33594 1.08659 4.39062 1.13444 4.43164 1.19824L10.2012 10.0918C10.4199 9.97331 10.6387 9.88672 10.8574 9.83203C11.0762 9.77734 11.3086 9.75 11.5547 9.75C11.9102 9.75 12.2428 9.82064 12.5527 9.96191C12.8672 10.1032 13.1406 10.2946 13.373 10.5361C13.6055 10.7731 13.7878 11.0511 13.9199 11.3701C14.0566 11.6891 14.125 12.0241 14.125 12.375C14.125 12.7396 14.0566 13.0814 13.9199 13.4004C13.7832 13.7194 13.5964 13.9974 13.3594 14.2344C13.1224 14.4714 12.8444 14.6582 12.5254 14.7949C12.2064 14.9316 11.8646 15 11.5 15C11.1491 15 10.8141 14.9339 10.4951 14.8018C10.1761 14.665 9.89583 14.4805 9.6543 14.248C9.41732 14.0156 9.22819 13.7445 9.08691 13.4346C8.94564 13.1201 8.875 12.7852 8.875 12.4297C8.875 12.097 8.92741 11.7803 9.03223 11.4795C9.13704 11.1787 9.30111 10.9007 9.52441 10.6455L8 8.30078L6.47559 10.6455C6.69889 10.9007 6.86296 11.1787 6.96777 11.4795C7.07259 11.7803 7.125 12.097 7.125 12.4297C7.125 12.7852 7.05436 13.1201 6.91309 13.4346C6.77181 13.7445 6.5804 14.0156 6.33887 14.248C6.10189 14.4805 5.82389 14.665 5.50488 14.8018C5.18587 14.9339 4.85091 15 4.5 15C4.12174 15 3.77311 14.9316 3.4541 14.7949C3.13509 14.6536 2.8571 14.4622 2.62012 14.2207C2.3877 13.9746 2.2054 13.6898 2.07324 13.3662C1.94108 13.0381 1.875 12.6895 1.875 12.3203ZM9.0459 6.69434L8.51953 5.89453L11.5684 1.19824C11.6094 1.13444 11.6641 1.08659 11.7324 1.05469C11.8008 1.01823 11.8714 1 11.9443 1C12.0674 1 12.1699 1.04557 12.252 1.13672C12.334 1.22331 12.375 1.32585 12.375 1.44434C12.375 1.53548 12.3522 1.61296 12.3066 1.67676L9.0459 6.69434ZM6.25 12.3408C6.25 12.1038 6.20215 11.8828 6.10645 11.6777C6.01074 11.4681 5.88314 11.2858 5.72363 11.1309C5.56413 10.9759 5.37728 10.8529 5.16309 10.7617C4.95345 10.6706 4.73242 10.625 4.5 10.625C4.25846 10.625 4.0306 10.6729 3.81641 10.7686C3.60677 10.8597 3.4222 10.985 3.2627 11.1445C3.10775 11.2995 2.98242 11.484 2.88672 11.6982C2.79557 11.9124 2.75 12.138 2.75 12.375C2.75 12.6165 2.79557 12.8444 2.88672 13.0586C2.98242 13.2682 3.10775 13.4528 3.2627 13.6123C3.4222 13.7673 3.60677 13.8926 3.81641 13.9883C4.0306 14.0794 4.25846 14.125 4.5 14.125C4.74609 14.125 4.97396 14.0794 5.18359 13.9883C5.39779 13.8926 5.58236 13.765 5.7373 13.6055C5.89681 13.4414 6.02214 13.2523 6.11328 13.0381C6.20443 12.8193 6.25 12.5869 6.25 12.3408ZM13.25 12.3408C13.25 12.1038 13.2021 11.8828 13.1064 11.6777C13.0107 11.4681 12.8831 11.2858 12.7236 11.1309C12.5641 10.9759 12.3773 10.8529 12.1631 10.7617C11.9535 10.6706 11.7324 10.625 11.5 10.625C11.2585 10.625 11.0306 10.6729 10.8164 10.7686C10.6068 10.8597 10.4222 10.985 10.2627 11.1445C10.1077 11.2995 9.98242 11.484 9.88672 11.6982C9.79557 11.9124 9.75 12.138 9.75 12.375C9.75 12.6165 9.79557 12.8444 9.88672 13.0586C9.98242 13.2682 10.1077 13.4528 10.2627 13.6123C10.4222 13.7673 10.6068 13.8926 10.8164 13.9883C11.0306 14.0794 11.2585 14.125 11.5 14.125C11.7461 14.125 11.974 14.0794 12.1836 13.9883C12.3978 13.8926 12.5824 13.765 12.7373 13.6055C12.8968 13.4414 13.0221 13.2523 13.1133 13.0381C13.2044 12.8193 13.25 12.5869 13.25 12.3408Z" fill="black" fill-opacity="0.8956"/>
</svg>
