<svg width="16" height="16" viewBox="0 0 16 16" fill="none" xmlns="http://www.w3.org/2000/svg">
<path d="M3.1875 15C3.00977 15 2.84115 14.9658 2.68164 14.8975C2.52214 14.8291 2.38086 14.7357 2.25781 14.6172C2.13932 14.4941 2.0459 14.3529 1.97754 14.1934C1.90918 14.0339 1.875 13.8652 1.875 13.6875V3.1875C1.875 3.00977 1.90918 2.84115 1.97754 2.68164C2.0459 2.52214 2.13932 2.38314 2.25781 2.26465C2.38086 2.1416 2.52214 2.0459 2.68164 1.97754C2.84115 1.90918 3.00977 1.875 3.1875 1.875H4.5752C4.62077 1.74284 4.68457 1.62435 4.7666 1.51953C4.84863 1.41016 4.94434 1.31673 5.05371 1.23926C5.16309 1.16178 5.28158 1.10254 5.40918 1.06152C5.53678 1.02051 5.67122 1 5.8125 1H8.4375C8.57878 1 8.71322 1.02051 8.84082 1.06152C8.96842 1.10254 9.08691 1.16178 9.19629 1.23926C9.30566 1.31673 9.40137 1.41016 9.4834 1.51953C9.56543 1.62435 9.62923 1.74284 9.6748 1.875H11.0625C11.2402 1.875 11.4089 1.90918 11.5684 1.97754C11.7279 2.0459 11.8669 2.1416 11.9854 2.26465C12.1084 2.38314 12.2041 2.52214 12.2725 2.68164C12.3408 2.84115 12.375 3.00977 12.375 3.1875V4.0625C12.375 4.18099 12.3317 4.28353 12.2451 4.37012C12.1585 4.45671 12.056 4.5 11.9375 4.5C11.8418 4.5 11.7643 4.48177 11.7051 4.44531C11.6458 4.40885 11.6003 4.361 11.5684 4.30176C11.541 4.23796 11.5205 4.16732 11.5068 4.08984C11.4977 4.00781 11.4932 3.92578 11.4932 3.84375C11.4932 3.76628 11.4954 3.69108 11.5 3.61816C11.5046 3.54069 11.5068 3.47005 11.5068 3.40625C11.5068 3.32422 11.5023 3.24447 11.4932 3.16699C11.484 3.08952 11.4635 3.02116 11.4316 2.96191C11.4043 2.89811 11.361 2.84798 11.3018 2.81152C11.2425 2.77051 11.1628 2.75 11.0625 2.75H9.6748C9.62923 2.88216 9.56543 3.00293 9.4834 3.1123C9.40137 3.21712 9.30566 3.30827 9.19629 3.38574C9.08691 3.46322 8.96842 3.52246 8.84082 3.56348C8.71322 3.60449 8.57878 3.625 8.4375 3.625H5.8125C5.67122 3.625 5.53678 3.60449 5.40918 3.56348C5.28158 3.52246 5.16309 3.46322 5.05371 3.38574C4.94434 3.30827 4.84863 3.21712 4.7666 3.1123C4.68457 3.00293 4.62077 2.88216 4.5752 2.75H3.1875C3.06901 2.75 2.96647 2.79329 2.87988 2.87988C2.79329 2.96647 2.75 3.06901 2.75 3.1875V13.6875C2.75 13.806 2.79329 13.9085 2.87988 13.9951C2.96647 14.0817 3.06901 14.125 3.1875 14.125H5.8125C5.93099 14.125 6.03353 14.1683 6.12012 14.2549C6.20671 14.3415 6.25 14.444 6.25 14.5625C6.25 14.681 6.20671 14.7835 6.12012 14.8701C6.03353 14.9567 5.93099 15 5.8125 15H3.1875ZM8.4375 2.75C8.55599 2.75 8.65853 2.70671 8.74512 2.62012C8.83171 2.53353 8.875 2.43099 8.875 2.3125C8.875 2.19401 8.83171 2.09147 8.74512 2.00488C8.65853 1.91829 8.55599 1.875 8.4375 1.875H5.8125C5.69401 1.875 5.59147 1.91829 5.50488 2.00488C5.41829 2.09147 5.375 2.19401 5.375 2.3125C5.375 2.43099 5.41829 2.53353 5.50488 2.62012C5.59147 2.70671 5.69401 2.75 5.8125 2.75H8.4375ZM8.4375 15C8.25977 15 8.09115 14.9658 7.93164 14.8975C7.77214 14.8291 7.63086 14.7357 7.50781 14.6172C7.38932 14.4941 7.2959 14.3529 7.22754 14.1934C7.15918 14.0339 7.125 13.8652 7.125 13.6875V6.6875C7.125 6.50977 7.15918 6.34115 7.22754 6.18164C7.2959 6.02214 7.38932 5.88314 7.50781 5.76465C7.63086 5.6416 7.77214 5.5459 7.93164 5.47754C8.09115 5.40918 8.25977 5.375 8.4375 5.375H12.8125C12.9902 5.375 13.1589 5.40918 13.3184 5.47754C13.4779 5.5459 13.6169 5.6416 13.7354 5.76465C13.8584 5.88314 13.9541 6.02214 14.0225 6.18164C14.0908 6.34115 14.125 6.50977 14.125 6.6875V13.6875C14.125 13.8652 14.0908 14.0339 14.0225 14.1934C13.9541 14.3529 13.8584 14.4941 13.7354 14.6172C13.6169 14.7357 13.4779 14.8291 13.3184 14.8975C13.1589 14.9658 12.9902 15 12.8125 15H8.4375ZM12.8125 14.125C12.931 14.125 13.0335 14.0817 13.1201 13.9951C13.2067 13.9085 13.25 13.806 13.25 13.6875V6.6875C13.25 6.56901 13.2067 6.46647 13.1201 6.37988C13.0335 6.29329 12.931 6.25 12.8125 6.25H8.4375C8.31901 6.25 8.21647 6.29329 8.12988 6.37988C8.04329 6.46647 8 6.56901 8 6.6875V13.6875C8 13.806 8.04329 13.9085 8.12988 13.9951C8.21647 14.0817 8.31901 14.125 8.4375 14.125H12.8125Z" fill="black" fill-opacity="0.4458"/>
</svg>
