<svg width="12" height="12" viewBox="0 0 12 12" fill="none" xmlns="http://www.w3.org/2000/svg">
<path d="M2.50195 6.49805C2.43164 6.49805 2.36523 6.48633 2.30273 6.46289C2.24414 6.43555 2.19141 6.40039 2.14453 6.35742C2.10156 6.31055 2.06641 6.25781 2.03906 6.19922C2.01172 6.13672 1.99805 6.07031 1.99805 6C1.99805 5.92969 2.01172 5.86523 2.03906 5.80664C2.06641 5.74414 2.10156 5.69141 2.14453 5.64844C2.19141 5.60156 2.24414 5.56641 2.30273 5.54297C2.36523 5.51562 2.43164 5.50195 2.50195 5.50195H9.49805C9.56836 5.50195 9.63281 5.51562 9.69141 5.54297C9.75391 5.56641 9.80664 5.60156 9.84961 5.64844C9.89648 5.69141 9.93359 5.74414 9.96094 5.80664C9.98828 5.86523 10.002 5.92969 10.002 6C10.002 6.07031 9.98828 6.13672 9.96094 6.19922C9.93359 6.25781 9.89648 6.31055 9.84961 6.35742C9.80664 6.40039 9.75391 6.43555 9.69141 6.46289C9.63281 6.48633 9.56836 6.49805 9.49805 6.49805H2.50195Z" fill="black" fill-opacity="0.5"/>
</svg>
