<svg width="16" height="16" viewBox="0 0 16 16" fill="none" xmlns="http://www.w3.org/2000/svg">
<path d="M15 5.34082V7.93164C14.8724 7.77214 14.7357 7.61947 14.5898 7.47363C14.444 7.3278 14.2891 7.19336 14.125 7.07031V5.375C14.125 5.25651 14.1022 5.14486 14.0566 5.04004C14.0111 4.93066 13.9473 4.83724 13.8652 4.75977C13.7878 4.67773 13.6943 4.61393 13.585 4.56836C13.4801 4.52279 13.3685 4.5 13.25 4.5H8.13672L7.26172 5.08105C6.96549 5.27702 6.64193 5.375 6.29102 5.375H1.875V12.375C1.875 12.498 1.89779 12.6143 1.94336 12.7236C1.98893 12.8285 2.05046 12.9196 2.12793 12.9971C2.2054 13.0745 2.29655 13.1361 2.40137 13.1816C2.51074 13.2272 2.62695 13.25 2.75 13.25H6.53027C6.60775 13.4049 6.68978 13.5553 6.77637 13.7012C6.86751 13.847 6.96549 13.9883 7.07031 14.125H2.71582C2.48796 14.125 2.26921 14.0794 2.05957 13.9883C1.85449 13.8926 1.6722 13.7673 1.5127 13.6123C1.35775 13.4528 1.23242 13.2705 1.13672 13.0654C1.04557 12.8558 1 12.637 1 12.4092V3.59082C1 3.36296 1.04557 3.14648 1.13672 2.94141C1.23242 2.73177 1.35775 2.54948 1.5127 2.39453C1.6722 2.23503 1.85449 2.1097 2.05957 2.01855C2.26921 1.92285 2.48796 1.875 2.71582 1.875H6.03125C6.30469 1.875 6.56445 1.93652 6.81055 2.05957C7.0612 2.18262 7.26855 2.35352 7.43262 2.57227L8.21875 3.625H13.2842C13.512 3.625 13.7285 3.67285 13.9336 3.76855C14.1432 3.8597 14.3255 3.98503 14.4805 4.14453C14.64 4.29948 14.7653 4.48177 14.8564 4.69141C14.9521 4.89648 15 5.11296 15 5.34082ZM7.37109 3.95312L6.72852 3.09863C6.64648 2.98926 6.54395 2.90495 6.4209 2.8457C6.29785 2.7819 6.16797 2.75 6.03125 2.75H2.75C2.62695 2.75 2.51302 2.77279 2.4082 2.81836C2.30339 2.86393 2.20996 2.92773 2.12793 3.00977C2.05046 3.08724 1.98893 3.17839 1.94336 3.2832C1.89779 3.38802 1.875 3.50195 1.875 3.625V4.5H6.29102C6.39128 4.5 6.48926 4.48177 6.58496 4.44531C6.68066 4.40885 6.77409 4.36328 6.86523 4.30859C6.95638 4.25391 7.04297 4.19466 7.125 4.13086C7.21159 4.06706 7.29362 4.00781 7.37109 3.95312ZM15 11.0625C15 11.6048 14.8952 12.1152 14.6855 12.5938C14.4805 13.0723 14.2002 13.4893 13.8447 13.8447C13.4893 14.2002 13.0723 14.4827 12.5938 14.6924C12.1152 14.8975 11.6048 15 11.0625 15C10.5156 15 10.0029 14.8975 9.52441 14.6924C9.0459 14.4873 8.62891 14.207 8.27344 13.8516C7.91797 13.4961 7.6377 13.0791 7.43262 12.6006C7.22754 12.1221 7.125 11.6094 7.125 11.0625C7.125 10.5202 7.22754 10.0098 7.43262 9.53125C7.64225 9.05273 7.9248 8.63574 8.28027 8.28027C8.63574 7.9248 9.05273 7.64453 9.53125 7.43945C10.0098 7.22982 10.5202 7.125 11.0625 7.125C11.4225 7.125 11.7689 7.17285 12.1016 7.26855C12.4388 7.3597 12.7533 7.49186 13.0449 7.66504C13.3366 7.83366 13.6032 8.03874 13.8447 8.28027C14.0863 8.52181 14.2913 8.78841 14.46 9.08008C14.6331 9.37174 14.7653 9.6862 14.8564 10.0234C14.9521 10.3561 15 10.7025 15 11.0625ZM13.25 11.0625C13.25 10.944 13.2067 10.8415 13.1201 10.7549C13.0335 10.6683 12.931 10.625 12.8125 10.625H11.5V9.3125C11.5 9.19401 11.4567 9.09147 11.3701 9.00488C11.2835 8.91829 11.181 8.875 11.0625 8.875C10.944 8.875 10.8415 8.91829 10.7549 9.00488C10.6683 9.09147 10.625 9.19401 10.625 9.3125V10.625H9.3125C9.19401 10.625 9.09147 10.6683 9.00488 10.7549C8.91829 10.8415 8.875 10.944 8.875 11.0625C8.875 11.181 8.91829 11.2835 9.00488 11.3701C9.09147 11.4567 9.19401 11.5 9.3125 11.5H10.625V12.8125C10.625 12.931 10.6683 13.0335 10.7549 13.1201C10.8415 13.2067 10.944 13.25 11.0625 13.25C11.181 13.25 11.2835 13.2067 11.3701 13.1201C11.4567 13.0335 11.5 12.931 11.5 12.8125V11.5H12.8125C12.931 11.5 13.0335 11.4567 13.1201 11.3701C13.2067 11.2835 13.25 11.181 13.25 11.0625Z" fill="black" fill-opacity="0.8956"/>
</svg>
