<svg width="16" height="16" viewBox="0 0 16 16" fill="none" xmlns="http://www.w3.org/2000/svg">
<path d="M2.71582 14.125C2.48796 14.125 2.26921 14.0794 2.05957 13.9883C1.85449 13.8926 1.6722 13.7673 1.5127 13.6123C1.35775 13.4528 1.23242 13.2705 1.13672 13.0654C1.04557 12.8558 1 12.637 1 12.4092V3.59082C1 3.36296 1.04557 3.14648 1.13672 2.94141C1.23242 2.73177 1.35775 2.54948 1.5127 2.39453C1.6722 2.23503 1.85449 2.1097 2.05957 2.01855C2.26921 1.92285 2.48796 1.875 2.71582 1.875H6.03125C6.3138 1.875 6.57357 1.93652 6.81055 2.05957C7.05208 2.18262 7.25944 2.35352 7.43262 2.57227C7.56478 2.74544 7.69466 2.9209 7.82227 3.09863C7.95443 3.27637 8.08659 3.45182 8.21875 3.625H12.4092C12.6553 3.625 12.8809 3.67513 13.0859 3.77539C13.2956 3.87109 13.4779 4.00326 13.6328 4.17188C13.7878 4.33594 13.9085 4.52734 13.9951 4.74609C14.0817 4.96484 14.125 5.19271 14.125 5.42969V5.50488C14.3483 5.61426 14.5283 5.77604 14.665 5.99023C14.8018 6.19987 14.8701 6.43001 14.8701 6.68066C14.8701 6.71257 14.8678 6.74447 14.8633 6.77637C14.8633 6.80371 14.861 6.83333 14.8564 6.86523L14.0566 12.6143C14.0293 12.8285 13.9632 13.029 13.8584 13.2158C13.7581 13.3981 13.6305 13.5576 13.4756 13.6943C13.3206 13.8265 13.1452 13.9313 12.9492 14.0088C12.7533 14.0863 12.5459 14.125 12.3271 14.125H2.71582ZM13.25 5.375C13.25 5.25651 13.2272 5.14486 13.1816 5.04004C13.1361 4.93066 13.0723 4.83724 12.9902 4.75977C12.9128 4.67773 12.8193 4.61393 12.71 4.56836C12.6051 4.52279 12.4935 4.5 12.375 4.5H7.78125L6.72852 3.09863C6.64648 2.98926 6.54395 2.90495 6.4209 2.8457C6.29785 2.7819 6.16797 2.75 6.03125 2.75H2.75C2.62695 2.75 2.51302 2.77279 2.4082 2.81836C2.30339 2.86393 2.20996 2.92773 2.12793 3.00977C2.05046 3.08724 1.98893 3.17839 1.94336 3.2832C1.89779 3.38802 1.875 3.50195 1.875 3.625V12.1426L2.98242 6.76953C3.02344 6.56901 3.09635 6.38444 3.20117 6.21582C3.31055 6.04264 3.44043 5.89453 3.59082 5.77148C3.74577 5.64844 3.91667 5.55273 4.10352 5.48438C4.29492 5.41146 4.49316 5.375 4.69824 5.375H13.25ZM12.3271 13.25C12.432 13.25 12.5322 13.2318 12.6279 13.1953C12.7282 13.1543 12.8171 13.0996 12.8945 13.0312C12.9766 12.9629 13.0426 12.8831 13.0928 12.792C13.1475 12.7008 13.1816 12.6029 13.1953 12.498L13.9883 6.74902C13.9928 6.73079 13.9951 6.70573 13.9951 6.67383C13.9951 6.55534 13.9518 6.45508 13.8652 6.37305C13.7786 6.29102 13.6761 6.25 13.5576 6.25H4.69824C4.59342 6.25 4.49316 6.26823 4.39746 6.30469C4.30632 6.33659 4.22201 6.38444 4.14453 6.44824C4.06706 6.50749 4.00098 6.5804 3.94629 6.66699C3.8916 6.75358 3.85514 6.84701 3.83691 6.94727L2.54492 13.2227C2.60417 13.2409 2.67253 13.25 2.75 13.25H12.3271Z" fill="white" fill-opacity="0.786"/>
</svg>
