<svg width="16" height="16" viewBox="0 0 16 16" fill="none" xmlns="http://www.w3.org/2000/svg">
<path d="M15 5.8125V10.1875C15 10.3607 14.9658 10.5293 14.8975 10.6934C14.8337 10.8529 14.7402 10.9941 14.6172 11.1172C14.4941 11.2402 14.3506 11.3359 14.1865 11.4043C14.027 11.4681 13.8607 11.5 13.6875 11.5H12.375V12.8125C12.375 12.9902 12.3408 13.1589 12.2725 13.3184C12.2041 13.4779 12.1084 13.6191 11.9854 13.7422C11.8669 13.8607 11.7279 13.9541 11.5684 14.0225C11.4089 14.0908 11.2402 14.125 11.0625 14.125H4.9375C4.75977 14.125 4.59115 14.0908 4.43164 14.0225C4.27214 13.9541 4.13086 13.8607 4.00781 13.7422C3.88932 13.6191 3.7959 13.4779 3.72754 13.3184C3.65918 13.1589 3.625 12.9902 3.625 12.8125V11.5H2.3125C2.13932 11.5 1.9707 11.4681 1.80664 11.4043C1.64714 11.3359 1.50586 11.2402 1.38281 11.1172C1.25977 10.9941 1.16406 10.8529 1.0957 10.6934C1.0319 10.5293 1 10.3607 1 10.1875V5.8125C1 5.51172 1.05697 5.22917 1.1709 4.96484C1.28483 4.69596 1.43978 4.46354 1.63574 4.26758C1.83626 4.06706 2.06868 3.90983 2.33301 3.7959C2.60189 3.68197 2.88672 3.625 3.1875 3.625H3.625V3.1875C3.625 3.00521 3.65918 2.83431 3.72754 2.6748C3.7959 2.5153 3.88932 2.3763 4.00781 2.25781C4.1263 2.13932 4.2653 2.0459 4.4248 1.97754C4.58431 1.90918 4.75521 1.875 4.9375 1.875H11.0625C11.2448 1.875 11.4157 1.90918 11.5752 1.97754C11.7347 2.0459 11.8737 2.13932 11.9922 2.25781C12.1107 2.3763 12.2041 2.5153 12.2725 2.6748C12.3408 2.83431 12.375 3.00521 12.375 3.1875V3.625H12.8125C13.1133 3.625 13.3958 3.68197 13.6602 3.7959C13.929 3.90983 14.1615 4.06706 14.3574 4.26758C14.5579 4.46354 14.7152 4.69596 14.8291 4.96484C14.943 5.22917 15 5.51172 15 5.8125ZM4.5 3.625H11.5V3.1875C11.5 3.06901 11.4567 2.96647 11.3701 2.87988C11.2835 2.79329 11.181 2.75 11.0625 2.75H4.9375C4.81901 2.75 4.71647 2.79329 4.62988 2.87988C4.54329 2.96647 4.5 3.06901 4.5 3.1875V3.625ZM14.125 5.8125C14.125 5.63021 14.0908 5.45931 14.0225 5.2998C13.9541 5.1403 13.8607 5.0013 13.7422 4.88281C13.6237 4.76432 13.4847 4.6709 13.3252 4.60254C13.1657 4.53418 12.9948 4.5 12.8125 4.5H3.1875C3.00521 4.5 2.83431 4.53418 2.6748 4.60254C2.5153 4.6709 2.3763 4.76432 2.25781 4.88281C2.13932 5.0013 2.0459 5.1403 1.97754 5.2998C1.90918 5.45931 1.875 5.63021 1.875 5.8125V10.1875C1.875 10.306 1.91829 10.4085 2.00488 10.4951C2.09147 10.5817 2.19401 10.625 2.3125 10.625H3.625V9.3125C3.625 9.13477 3.65918 8.96615 3.72754 8.80664C3.7959 8.64714 3.88932 8.50814 4.00781 8.38965C4.13086 8.2666 4.27214 8.1709 4.43164 8.10254C4.59115 8.03418 4.75977 8 4.9375 8H11.0625C11.2402 8 11.4089 8.03418 11.5684 8.10254C11.7279 8.1709 11.8669 8.2666 11.9854 8.38965C12.1084 8.50814 12.2041 8.64714 12.2725 8.80664C12.3408 8.96615 12.375 9.13477 12.375 9.3125V10.625H13.6875C13.806 10.625 13.9085 10.5817 13.9951 10.4951C14.0817 10.4085 14.125 10.306 14.125 10.1875V5.8125ZM11.5 9.3125C11.5 9.19401 11.4567 9.09147 11.3701 9.00488C11.2835 8.91829 11.181 8.875 11.0625 8.875H4.9375C4.81901 8.875 4.71647 8.91829 4.62988 9.00488C4.54329 9.09147 4.5 9.19401 4.5 9.3125V12.8125C4.5 12.931 4.54329 13.0335 4.62988 13.1201C4.71647 13.2067 4.81901 13.25 4.9375 13.25H11.0625C11.181 13.25 11.2835 13.2067 11.3701 13.1201C11.4567 13.0335 11.5 12.931 11.5 12.8125V9.3125Z" fill="white" fill-opacity="0.786"/>
</svg>
