<svg width="16" height="16" viewBox="0 0 16 16" fill="none" xmlns="http://www.w3.org/2000/svg">
<path d="M14.125 5.48438V12.375C14.125 12.6074 14.0794 12.8307 13.9883 13.0449C13.8971 13.2546 13.7741 13.4391 13.6191 13.5986C13.4642 13.7581 13.2819 13.8857 13.0723 13.9814C12.8672 14.0771 12.6462 14.125 12.4092 14.125H3.625C3.39258 14.125 3.16927 14.0794 2.95508 13.9883C2.74544 13.8971 2.56087 13.7741 2.40137 13.6191C2.24186 13.4642 2.11426 13.2842 2.01855 13.0791C1.92285 12.8695 1.875 12.6462 1.875 12.4092V3.625C1.875 3.39258 1.92057 3.17155 2.01172 2.96191C2.10286 2.74772 2.22591 2.56087 2.38086 2.40137C2.53581 2.24186 2.71582 2.11426 2.9209 2.01855C3.13053 1.92285 3.35384 1.875 3.59082 1.875H10.5156C10.748 1.875 10.9714 1.92057 11.1855 2.01172C11.3997 2.09831 11.5889 2.22363 11.7529 2.3877L13.6123 4.24707C13.7764 4.41113 13.9017 4.60026 13.9883 4.81445C14.0794 5.02865 14.125 5.25195 14.125 5.48438ZM13.25 5.48438C13.25 5.23828 13.1657 5.03092 12.9971 4.8623L11.1377 3.00293C10.9964 2.86165 10.8255 2.77962 10.625 2.75684V4.9375C10.625 5.11523 10.5908 5.28385 10.5225 5.44336C10.4541 5.60286 10.3584 5.74414 10.2354 5.86719C10.1169 5.98568 9.97786 6.0791 9.81836 6.14746C9.65885 6.21582 9.49023 6.25 9.3125 6.25H5.8125C5.63477 6.25 5.46615 6.21582 5.30664 6.14746C5.14714 6.0791 5.00586 5.98568 4.88281 5.86719C4.76432 5.74414 4.6709 5.60286 4.60254 5.44336C4.53418 5.28385 4.5 5.11523 4.5 4.9375V2.75H3.625C3.50195 2.75 3.38802 2.77279 3.2832 2.81836C3.17839 2.86393 3.08496 2.92773 3.00293 3.00977C2.92546 3.08724 2.86393 3.17839 2.81836 3.2832C2.77279 3.38802 2.75 3.50195 2.75 3.625V12.375C2.75 12.498 2.77279 12.6143 2.81836 12.7236C2.86393 12.8285 2.92546 12.9196 3.00293 12.9971C3.0804 13.0745 3.17155 13.1361 3.27637 13.1816C3.38574 13.2272 3.50195 13.25 3.625 13.25V9.3125C3.625 9.13477 3.65918 8.96615 3.72754 8.80664C3.7959 8.64714 3.88932 8.50814 4.00781 8.38965C4.13086 8.2666 4.27214 8.1709 4.43164 8.10254C4.59115 8.03418 4.75977 8 4.9375 8H11.0625C11.2402 8 11.4089 8.03418 11.5684 8.10254C11.7279 8.1709 11.8669 8.2666 11.9854 8.38965C12.1084 8.50814 12.2041 8.64714 12.2725 8.80664C12.3408 8.96615 12.375 9.13477 12.375 9.3125V13.25C12.498 13.25 12.612 13.2272 12.7168 13.1816C12.8216 13.1361 12.9128 13.0745 12.9902 12.9971C13.0723 12.915 13.1361 12.8216 13.1816 12.7168C13.2272 12.612 13.25 12.498 13.25 12.375V5.48438ZM5.375 2.75V4.9375C5.375 5.05599 5.41829 5.15853 5.50488 5.24512C5.59147 5.33171 5.69401 5.375 5.8125 5.375H9.3125C9.43099 5.375 9.53353 5.33171 9.62012 5.24512C9.70671 5.15853 9.75 5.05599 9.75 4.9375V2.75H5.375ZM11.5 13.25V9.3125C11.5 9.19401 11.4567 9.09147 11.3701 9.00488C11.2835 8.91829 11.181 8.875 11.0625 8.875H4.9375C4.81901 8.875 4.71647 8.91829 4.62988 9.00488C4.54329 9.09147 4.5 9.19401 4.5 9.3125V13.25H11.5Z" fill="white" fill-opacity="0.3628"/>
</svg>
