<svg width="16" height="16" viewBox="0 0 16 16" fill="none" xmlns="http://www.w3.org/2000/svg">
<path d="M3.99805 6.5C3.99805 6.42969 4.01172 6.36523 4.03906 6.30664C4.06641 6.24414 4.10156 6.19141 4.14453 6.14844C4.19141 6.10156 4.24414 6.06445 4.30273 6.03711C4.36523 6.00977 4.43164 5.99609 4.50195 5.99609C4.57617 5.99609 4.64062 6.00977 4.69531 6.03711C4.75 6.06055 4.80273 6.09766 4.85352 6.14844L8 9.29492L11.1465 6.14844C11.248 6.04688 11.3652 5.99609 11.498 5.99609C11.5684 5.99609 11.6328 6.00977 11.6914 6.03711C11.7539 6.06445 11.8066 6.10156 11.8496 6.14844C11.8965 6.19141 11.9336 6.24414 11.9609 6.30664C11.9883 6.36523 12.002 6.42969 12.002 6.5C12.002 6.63672 11.9531 6.75391 11.8555 6.85156L8.35156 10.3555C8.25391 10.4531 8.13672 10.502 8 10.502C7.86328 10.502 7.74609 10.4531 7.64844 10.3555L4.14453 6.85156C4.04688 6.75391 3.99805 6.63672 3.99805 6.5Z" fill="black" fill-opacity="0.6063"/>
</svg>
