<svg width="16" height="16" viewBox="0 0 16 16" fill="none" xmlns="http://www.w3.org/2000/svg">
<path d="M8 8.70898L4.85352 11.8555C4.75586 11.9531 4.63867 12.002 4.50195 12.002C4.36133 12.002 4.24219 11.9531 4.14453 11.8555C4.04688 11.7578 3.99805 11.6387 3.99805 11.498C3.99805 11.3613 4.04688 11.2441 4.14453 11.1465L7.29102 8L4.14453 4.85352C4.04688 4.75586 3.99805 4.63672 3.99805 4.49609C3.99805 4.42578 4.01172 4.36133 4.03906 4.30273C4.06641 4.24023 4.10156 4.1875 4.14453 4.14453C4.19141 4.09766 4.24414 4.0625 4.30273 4.03906C4.36523 4.01172 4.43164 3.99805 4.50195 3.99805C4.63867 3.99805 4.75586 4.04688 4.85352 4.14453L8 7.29102L11.1465 4.14453C11.2441 4.04688 11.3613 3.99805 11.498 3.99805C11.6387 3.99805 11.7578 4.04688 11.8555 4.14453C11.9531 4.24219 12.002 4.36133 12.002 4.50195C12.002 4.63867 11.9531 4.75586 11.8555 4.85352L8.70898 8L11.8555 11.1465C11.9531 11.2441 12.002 11.3633 12.002 11.5039C12.002 11.5742 11.9883 11.6406 11.9609 11.7031C11.9336 11.7617 11.8965 11.8145 11.8496 11.8613C11.8066 11.9043 11.7539 11.9395 11.6914 11.9668C11.6328 11.9902 11.5684 12.002 11.498 12.002C11.3613 12.002 11.2441 11.9531 11.1465 11.8555L8 8.70898Z" fill="black" fill-opacity="0.6063"/>
</svg>
