<svg width="16" height="16" viewBox="0 0 16 16" fill="none" xmlns="http://www.w3.org/2000/svg">
<path d="M12.4092 2.75C12.637 2.75 12.8535 2.79785 13.0586 2.89355C13.2682 2.9847 13.4505 3.11003 13.6055 3.26953C13.765 3.42448 13.8903 3.60677 13.9814 3.81641C14.0771 4.02148 14.125 4.23796 14.125 4.46582V11.5342C14.125 11.762 14.0771 11.9808 13.9814 12.1904C13.8903 12.3955 13.765 12.5778 13.6055 12.7373C13.4505 12.8923 13.2682 13.0176 13.0586 13.1133C12.8535 13.2044 12.637 13.25 12.4092 13.25H8.875V12.375H12.375C12.498 12.375 12.612 12.3522 12.7168 12.3066C12.8216 12.2611 12.9128 12.1995 12.9902 12.1221C13.0723 12.04 13.1361 11.9466 13.1816 11.8418C13.2272 11.737 13.25 11.623 13.25 11.5V4.5C13.25 4.38151 13.2272 4.26986 13.1816 4.16504C13.1361 4.05566 13.0723 3.96224 12.9902 3.88477C12.9128 3.80273 12.8193 3.73893 12.71 3.69336C12.6051 3.64779 12.4935 3.625 12.375 3.625H2.75C2.62695 3.625 2.51302 3.64779 2.4082 3.69336C2.30339 3.73893 2.20996 3.80273 2.12793 3.88477C2.05046 3.96224 1.98893 4.05339 1.94336 4.1582C1.89779 4.26302 1.875 4.37695 1.875 4.5V11.5C1.875 11.623 1.89779 11.7393 1.94336 11.8486C1.98893 11.9535 2.05046 12.0446 2.12793 12.1221C2.2054 12.1995 2.29655 12.2611 2.40137 12.3066C2.51074 12.3522 2.62695 12.375 2.75 12.375H6.25V13.25H2.71582C2.48796 13.25 2.26921 13.2044 2.05957 13.1133C1.85449 13.0176 1.6722 12.8923 1.5127 12.7373C1.35775 12.5778 1.23242 12.3955 1.13672 12.1904C1.04557 11.9808 1 11.762 1 11.5342V4.46582C1 4.23796 1.04557 4.02148 1.13672 3.81641C1.23242 3.60677 1.35775 3.42448 1.5127 3.26953C1.6722 3.11003 1.85449 2.9847 2.05957 2.89355C2.26921 2.79785 2.48796 2.75 2.71582 2.75H12.4092ZM8 7.74023V13.6875C8 13.806 7.95671 13.9085 7.87012 13.9951C7.78353 14.0817 7.68099 14.125 7.5625 14.125C7.44401 14.125 7.34147 14.0817 7.25488 13.9951C7.16829 13.9085 7.125 13.806 7.125 13.6875V7.74023L5.24512 9.62012C5.15853 9.70671 5.05599 9.75 4.9375 9.75C4.81901 9.75 4.71647 9.70671 4.62988 9.62012C4.54329 9.53353 4.5 9.43099 4.5 9.3125C4.5 9.19401 4.54329 9.09147 4.62988 9.00488L7.25488 6.37988C7.34147 6.29329 7.44401 6.25 7.5625 6.25C7.68099 6.25 7.78353 6.29329 7.87012 6.37988L10.4951 9.00488C10.5817 9.09147 10.625 9.19401 10.625 9.3125C10.625 9.43099 10.5817 9.53353 10.4951 9.62012C10.4085 9.70671 10.306 9.75 10.1875 9.75C10.069 9.75 9.96647 9.70671 9.87988 9.62012L8 7.74023Z" fill="black" fill-opacity="0.4458"/>
</svg>
