<svg width="16" height="16" viewBox="0 0 16 16" fill="none" xmlns="http://www.w3.org/2000/svg">
<path d="M1.20508 9.32617C1.20508 9.29883 1.20964 9.26237 1.21875 9.2168C1.36003 8.68815 1.5446 8.18229 1.77246 7.69922C2.00488 7.21615 2.27832 6.76725 2.59277 6.35254C2.90723 5.93783 3.25814 5.56413 3.64551 5.23145C4.03743 4.89421 4.46126 4.6071 4.91699 4.37012C5.37272 4.12858 5.85807 3.94401 6.37305 3.81641C6.89258 3.6888 7.4349 3.625 8 3.625C8.65625 3.625 9.28743 3.71842 9.89355 3.90527C10.5042 4.09212 11.0739 4.35417 11.6025 4.69141C12.1312 5.02865 12.612 5.43424 13.0449 5.9082C13.4779 6.3776 13.8447 6.89941 14.1455 7.47363C14.1911 7.56022 14.2503 7.68783 14.3232 7.85645C14.3962 8.02507 14.4668 8.2028 14.5352 8.38965C14.6081 8.5765 14.6696 8.75651 14.7197 8.92969C14.7699 9.09831 14.7949 9.22591 14.7949 9.3125C14.7949 9.43099 14.7516 9.53353 14.665 9.62012C14.5785 9.70671 14.4759 9.75 14.3574 9.75C14.2389 9.75 14.1501 9.72038 14.0908 9.66113C14.0316 9.59733 13.9792 9.5153 13.9336 9.41504C13.8835 9.31022 13.847 9.20085 13.8242 9.08691C13.8014 8.97298 13.7718 8.86133 13.7354 8.75195C13.6305 8.41927 13.487 8.09115 13.3047 7.76758C13.127 7.44401 12.9287 7.14551 12.71 6.87207C12.4183 6.49837 12.0947 6.16569 11.7393 5.87402C11.3838 5.5778 11.0033 5.32943 10.5977 5.12891C10.1921 4.92383 9.76595 4.76888 9.31934 4.66406C8.87272 4.55469 8.41016 4.5 7.93164 4.5C7.36654 4.5 6.82194 4.58431 6.29785 4.75293C5.77376 4.92155 5.28385 5.15625 4.82812 5.45703C4.3724 5.75326 3.95768 6.10872 3.58398 6.52344C3.21029 6.93359 2.89355 7.38249 2.63379 7.87012C2.60189 7.92936 2.55859 8.01823 2.50391 8.13672C2.44922 8.25521 2.39453 8.38053 2.33984 8.5127C2.28516 8.64486 2.2373 8.77018 2.19629 8.88867C2.15983 9.00716 2.1416 9.09603 2.1416 9.15527C2.1416 9.22363 2.12793 9.29427 2.10059 9.36719C2.0778 9.43555 2.04362 9.49935 1.99805 9.55859C1.95703 9.61328 1.90462 9.66113 1.84082 9.70215C1.78158 9.73861 1.71549 9.75684 1.64258 9.75684C1.52409 9.75684 1.42155 9.71582 1.33496 9.63379C1.24837 9.55176 1.20508 9.44922 1.20508 9.32617ZM4.9375 9.25781C4.9375 8.84766 5.01953 8.46029 5.18359 8.0957C5.35221 7.73112 5.57552 7.41211 5.85352 7.13867C6.13607 6.86523 6.46191 6.64876 6.83105 6.48926C7.2002 6.32975 7.58984 6.25 8 6.25C8.41927 6.25 8.81348 6.33203 9.18262 6.49609C9.55632 6.6556 9.88216 6.87435 10.1602 7.15234C10.4382 7.43034 10.6569 7.75618 10.8164 8.12988C10.9805 8.49902 11.0625 8.89323 11.0625 9.3125C11.0625 9.73177 10.9805 10.1283 10.8164 10.502C10.6569 10.8711 10.4382 11.1947 10.1602 11.4727C9.88216 11.7507 9.55632 11.9717 9.18262 12.1357C8.81348 12.2952 8.41927 12.375 8 12.375C7.56706 12.375 7.16374 12.293 6.79004 12.1289C6.41634 11.9648 6.09277 11.7415 5.81934 11.459C5.5459 11.1764 5.32943 10.846 5.16992 10.4678C5.01497 10.0895 4.9375 9.6862 4.9375 9.25781ZM10.1875 9.26465C10.1875 8.96842 10.1283 8.69043 10.0098 8.43066C9.89128 8.1709 9.73177 7.94531 9.53125 7.75391C9.33073 7.55794 9.09831 7.40527 8.83398 7.2959C8.56966 7.18197 8.29167 7.125 8 7.125C7.69466 7.125 7.40983 7.18197 7.14551 7.2959C6.88118 7.40983 6.64876 7.56706 6.44824 7.76758C6.25228 7.96354 6.09733 8.19368 5.9834 8.45801C5.86947 8.72233 5.8125 9.00716 5.8125 9.3125C5.8125 9.61784 5.86947 9.90267 5.9834 10.167C6.09733 10.4313 6.25228 10.6637 6.44824 10.8643C6.64876 11.0602 6.88118 11.2152 7.14551 11.3291C7.40983 11.443 7.69466 11.5 8 11.5C8.31445 11.5 8.60384 11.443 8.86816 11.3291C9.13704 11.2106 9.36719 11.0511 9.55859 10.8506C9.75456 10.6455 9.90723 10.4085 10.0166 10.1396C10.1305 9.86621 10.1875 9.57454 10.1875 9.26465Z" fill="black" fill-opacity="0.4458"/>
</svg>
