<svg width="5" height="10" viewBox="0 0 5 10" fill="none" xmlns="http://www.w3.org/2000/svg">
<path d="M0.00195312 8.49805C0.00195312 8.36133 0.0507812 8.24414 0.148438 8.14648L3.29492 5L0.148438 1.85352C0.0507812 1.75586 0.00195312 1.63867 0.00195312 1.50195C0.00195312 1.36523 0.0488281 1.24805 0.142578 1.15039C0.240234 1.04883 0.359375 0.998047 0.5 0.998047C0.636719 0.998047 0.753906 1.04687 0.851562 1.14453L4.35547 4.64844C4.45312 4.74609 4.50195 4.86328 4.50195 5C4.50195 5.13672 4.45312 5.25391 4.35547 5.35156L0.851562 8.85547C0.753906 8.95312 0.636719 9.00195 0.5 9.00195C0.359375 9.00195 0.240234 8.95312 0.142578 8.85547C0.0488281 8.75391 0.00195312 8.63477 0.00195312 8.49805Z" fill="black" fill-opacity="0.6063"/>
</svg>
