<svg width="8" height="8" viewBox="0 0 8 8" fill="none" xmlns="http://www.w3.org/2000/svg">
<path d="M1 4C1 3.75521 1.05729 3.52604 1.17188 3.3125C1.28646 3.09635 1.44401 2.91927 1.64453 2.78125L5.42969 0.179687C5.51823 0.119792 5.60807 0.0755208 5.69922 0.046875C5.79036 0.015625 5.89062 0 6 0C6.13542 0 6.26432 0.0260417 6.38672 0.078125C6.50911 0.130208 6.61458 0.201823 6.70312 0.292969C6.79427 0.38151 6.86589 0.485677 6.91797 0.605469C6.97266 0.72526 7 0.854167 7 0.992187L7 7.00781C7 7.14583 6.97266 7.27474 6.91797 7.39453C6.86589 7.51432 6.79427 7.61979 6.70313 7.71094C6.61458 7.79948 6.50911 7.86979 6.38672 7.92187C6.26432 7.97396 6.13542 8 6 8C5.79427 8 5.60417 7.9401 5.42969 7.82031L1.64453 5.21875C1.44401 5.08073 1.28646 4.90495 1.17188 4.69141C1.05729 4.47526 1 4.24479 1 4Z" fill="white" fill-opacity="0.5442"/>
</svg>
