<svg width="8" height="8" viewBox="0 0 8 8" fill="none" xmlns="http://www.w3.org/2000/svg">
<path d="M0 2C0 1.86458 0.0260417 1.73568 0.078125 1.61328C0.130208 1.49089 0.200521 1.38542 0.289062 1.29688C0.380208 1.20573 0.485677 1.13411 0.605469 1.08203C0.72526 1.02734 0.854167 1 0.992188 1H7.01172C7.14714 1 7.27474 1.02604 7.39453 1.07812C7.51693 1.13021 7.6224 1.20182 7.71094 1.29297C7.79948 1.38411 7.86979 1.49089 7.92188 1.61328C7.97396 1.73307 8 1.86068 8 1.99609C8 2.10547 7.98438 2.20573 7.95312 2.29688C7.92448 2.38802 7.88021 2.47917 7.82031 2.57031L5.21875 6.35547C5.08073 6.55599 4.90365 6.71354 4.6875 6.82812C4.47396 6.94271 4.24479 7 4 7C3.75521 7 3.52474 6.94271 3.30859 6.82812C3.09505 6.71354 2.91927 6.55599 2.78125 6.35547L0.179688 2.57031C0.119792 2.48177 0.0742188 2.39193 0.0429688 2.30078C0.0143229 2.20964 0 2.10938 0 2Z" fill="white" fill-opacity="0.5442"/>
</svg>
