<svg width="16" height="16" viewBox="0 0 16 16" fill="none" xmlns="http://www.w3.org/2000/svg">
<path d="M15.0068 14.5625C15.0068 14.681 14.9635 14.7835 14.877 14.8701C14.7904 14.9567 14.6878 15 14.5693 15C14.4463 15 14.3415 14.9567 14.2549 14.8701L10.4883 11.1035C10.1829 11.5228 9.81152 11.8395 9.37402 12.0537C8.93652 12.2679 8.46029 12.375 7.94531 12.375C7.54427 12.375 7.16146 12.293 6.79688 12.1289C6.43685 11.9648 6.11784 11.7461 5.83984 11.4727C5.56641 11.1947 5.34766 10.8757 5.18359 10.5156C5.01953 10.151 4.9375 9.76823 4.9375 9.36719C4.9375 8.85221 5.0446 8.37598 5.25879 7.93848C5.47298 7.50098 5.78971 7.12956 6.20898 6.82422L4.82812 5.44336C4.24479 5.81706 3.73665 6.2819 3.30371 6.83789C2.87533 7.38932 2.54264 7.98861 2.30566 8.63574C2.27376 8.72233 2.24414 8.82943 2.2168 8.95703C2.18945 9.08464 2.15299 9.20996 2.10742 9.33301C2.06185 9.4515 2.0026 9.55404 1.92969 9.64062C1.85677 9.72266 1.76107 9.76367 1.64258 9.76367C1.52409 9.76367 1.42155 9.72038 1.33496 9.63379C1.24837 9.5472 1.20508 9.44466 1.20508 9.32617C1.20508 9.29883 1.20964 9.26237 1.21875 9.2168C1.31901 8.77474 1.46029 8.34635 1.64258 7.93164C1.82943 7.51237 2.04818 7.11589 2.29883 6.74219C2.55404 6.36393 2.84115 6.01302 3.16016 5.68945C3.47917 5.36589 3.82552 5.07422 4.19922 4.81445L1.12988 1.74512C1.04329 1.65853 1 1.55599 1 1.4375C1 1.31445 1.04329 1.21191 1.12988 1.12988C1.22103 1.04329 1.32585 1 1.44434 1C1.56283 1 1.66536 1.04329 1.75195 1.12988L14.877 14.2549C14.9635 14.3415 15.0068 14.444 15.0068 14.5625ZM6.54395 4.68457L5.84668 3.98047C6.19303 3.86198 6.54622 3.77311 6.90625 3.71387C7.26628 3.65462 7.63086 3.625 8 3.625C8.65625 3.625 9.28743 3.71842 9.89355 3.90527C10.5042 4.09212 11.0739 4.35645 11.6025 4.69824C12.1312 5.03548 12.612 5.44108 13.0449 5.91504C13.4779 6.38444 13.8447 6.90397 14.1455 7.47363C14.1911 7.55566 14.2503 7.68327 14.3232 7.85645C14.3962 8.02507 14.4668 8.2028 14.5352 8.38965C14.6081 8.5765 14.6696 8.75651 14.7197 8.92969C14.7699 9.09831 14.7949 9.22591 14.7949 9.3125C14.7949 9.43555 14.7516 9.54036 14.665 9.62695C14.5785 9.70898 14.4736 9.75 14.3506 9.75C14.2321 9.75 14.1432 9.72038 14.084 9.66113C14.0247 9.59733 13.9746 9.5153 13.9336 9.41504C13.8835 9.29655 13.8424 9.1735 13.8105 9.0459C13.7832 8.91829 13.749 8.79297 13.708 8.66992C13.5986 8.35547 13.4574 8.04557 13.2842 7.74023C13.1156 7.43034 12.9287 7.14551 12.7236 6.88574C12.4365 6.5166 12.1175 6.1862 11.7666 5.89453C11.4157 5.59831 11.0397 5.34766 10.6387 5.14258C10.2376 4.9375 9.8138 4.78027 9.36719 4.6709C8.92513 4.55697 8.4694 4.5 8 4.5C7.4987 4.5 7.01335 4.56152 6.54395 4.68457ZM9.85938 10.4746L6.83789 7.45312C6.50065 7.67188 6.24544 7.94531 6.07227 8.27344C5.89909 8.59701 5.8125 8.95931 5.8125 9.36035C5.8125 9.64746 5.86947 9.9209 5.9834 10.1807C6.10189 10.4404 6.25684 10.6683 6.44824 10.8643C6.64421 11.0557 6.87207 11.2106 7.13184 11.3291C7.3916 11.443 7.66504 11.5 7.95215 11.5C8.35319 11.5 8.71549 11.4134 9.03906 11.2402C9.36719 11.0671 9.64062 10.8118 9.85938 10.4746Z" fill="white"/>
</svg>
