<svg width="8" height="8" viewBox="0 0 8 8" fill="none" xmlns="http://www.w3.org/2000/svg">
<path d="M1 7.00781L1 0.992187C1 0.854167 1.02604 0.72526 1.07812 0.605469C1.13281 0.485677 1.20443 0.38151 1.29297 0.292969C1.38411 0.201823 1.48958 0.130208 1.60938 0.078125C1.73177 0.0260417 1.86198 0 2 0C2.20573 0 2.39583 0.0598958 2.57031 0.179687L6.35547 2.78125C6.55859 2.92187 6.71615 3.09896 6.82813 3.3125C6.94271 3.52604 7 3.75521 7 4C7 4.24479 6.94271 4.47396 6.82813 4.6875C6.71615 4.90104 6.55859 5.07812 6.35547 5.21875L2.57031 7.82031C2.39583 7.9401 2.20573 8 2 8C1.86198 8 1.73177 7.97396 1.60938 7.92188C1.48958 7.86979 1.38411 7.79948 1.29297 7.71094C1.20443 7.61979 1.13281 7.51432 1.07813 7.39453C1.02604 7.27474 1 7.14583 1 7.00781Z" fill="black" fill-opacity="0.4458"/>
</svg>
