<svg width="8" height="8" viewBox="0 0 8 8" fill="none" xmlns="http://www.w3.org/2000/svg">
<path d="M0.992188 7C0.854167 7 0.72526 6.97396 0.605469 6.92188C0.485677 6.86719 0.380208 6.79557 0.289062 6.70703C0.200521 6.61589 0.130208 6.51042 0.078125 6.39062C0.0260417 6.26823 0 6.13802 0 6C0 5.89062 0.0143229 5.79036 0.0429688 5.69922C0.0742188 5.60807 0.119792 5.51823 0.179688 5.42969L2.78125 1.64453C2.84896 1.54557 2.92839 1.45833 3.01953 1.38281C3.11068 1.30729 3.20833 1.24479 3.3125 1.19531C3.41927 1.14323 3.53125 1.10417 3.64844 1.07812C3.76562 1.05208 3.88281 1.03906 4 1.03906C4.11719 1.03906 4.23438 1.05208 4.35156 1.07812C4.46875 1.10417 4.57943 1.14323 4.68359 1.19531C4.79036 1.24479 4.88932 1.30729 4.98047 1.38281C5.07161 1.45833 5.15104 1.54557 5.21875 1.64453L7.82031 5.42969C7.88021 5.51823 7.92448 5.60807 7.95312 5.69922C7.98438 5.79036 8 5.89062 8 6C8 6.13802 7.97396 6.26823 7.92188 6.39062C7.86979 6.51042 7.79948 6.61589 7.71094 6.70703C7.6224 6.79557 7.51693 6.86719 7.39453 6.92188C7.27474 6.97396 7.14714 7 7.01172 7H0.992188Z" fill="black" fill-opacity="0.4458"/>
</svg>
