<svg width="16" height="16" viewBox="0 0 16 16" fill="none" xmlns="http://www.w3.org/2000/svg">
<path d="M3.5 6.125C3.5 6.02344 3.53711 5.93555 3.61133 5.86133C3.68555 5.78711 3.77344 5.75 3.875 5.75C3.97656 5.75 4.06445 5.78711 4.13867 5.86133L8 9.7168L11.8613 5.86133C11.9355 5.78711 12.0234 5.75 12.125 5.75C12.2266 5.75 12.3145 5.78711 12.3887 5.86133C12.4629 5.93555 12.5 6.02344 12.5 6.125C12.5 6.22656 12.4629 6.31445 12.3887 6.38867L8.26367 10.5137C8.18945 10.5879 8.10156 10.625 8 10.625C7.89844 10.625 7.81055 10.5879 7.73633 10.5137L3.61133 6.38867C3.53711 6.31445 3.5 6.22656 3.5 6.125Z" fill="white" fill-opacity="0.5442"/>
</svg>
