<svg width="12" height="12" viewBox="0 0 12 12" fill="none" xmlns="http://www.w3.org/2000/svg">
<path d="M4.00195 9.49805C4.00195 9.36133 4.05078 9.24414 4.14844 9.14648L7.29492 6L4.14844 2.85352C4.05078 2.75586 4.00195 2.63867 4.00195 2.50195C4.00195 2.36523 4.04883 2.24805 4.14258 2.15039C4.24023 2.04883 4.35938 1.99805 4.5 1.99805C4.63672 1.99805 4.75391 2.04687 4.85156 2.14453L8.35547 5.64844C8.45312 5.74609 8.50195 5.86328 8.50195 6C8.50195 6.13672 8.45312 6.25391 8.35547 6.35156L4.85156 9.85547C4.75391 9.95312 4.63672 10.002 4.5 10.002C4.35938 10.002 4.24023 9.95312 4.14258 9.85547C4.04883 9.75391 4.00195 9.63477 4.00195 9.49805Z" fill="white"/>
</svg>
