<svg width="16" height="16" viewBox="0 0 16 16" fill="none" xmlns="http://www.w3.org/2000/svg">
<path d="M3.5 9.875C3.5 9.77344 3.53711 9.68555 3.61133 9.61133L7.73633 5.48633C7.81055 5.41211 7.89844 5.375 8 5.375C8.10156 5.375 8.18945 5.41211 8.26367 5.48633L12.3887 9.61133C12.4629 9.68555 12.5 9.77344 12.5 9.875C12.5 9.97656 12.4629 10.0645 12.3887 10.1387C12.3145 10.2129 12.2266 10.25 12.125 10.25C12.0234 10.25 11.9355 10.2129 11.8613 10.1387L8 6.2832L4.13867 10.1387C4.06445 10.2129 3.97656 10.25 3.875 10.25C3.77344 10.25 3.68555 10.2129 3.61133 10.1387C3.53711 10.0645 3.5 9.97656 3.5 9.875Z" fill="black" fill-opacity="0.8956"/>
</svg>
