<svg width="16" height="16" viewBox="0 0 16 16" fill="none" xmlns="http://www.w3.org/2000/svg">
<path d="M14.9932 2.25781C14.9932 2.4082 14.9658 2.56315 14.9111 2.72266C14.861 2.8776 14.7926 3.0166 14.7061 3.13965L13.5371 4.8418C12.6074 6.19987 11.6094 7.49186 10.543 8.71777C9.48112 9.93913 8.3418 11.1058 7.125 12.2178C7.12044 12.5459 7.06348 12.8512 6.9541 13.1338C6.84473 13.4118 6.66699 13.6624 6.4209 13.8857C6.21126 14.0771 5.97656 14.2435 5.7168 14.3848C5.45703 14.5215 5.18587 14.6377 4.90332 14.7334C4.62077 14.8245 4.33138 14.8929 4.03516 14.9385C3.74349 14.9795 3.45866 15 3.18066 15C3.06217 15 2.91862 14.9954 2.75 14.9863C2.58138 14.9727 2.4082 14.9544 2.23047 14.9316C2.05273 14.9043 1.88184 14.8747 1.71777 14.8428C1.55371 14.8109 1.41699 14.7744 1.30762 14.7334C1.21191 14.6969 1.13672 14.6445 1.08203 14.5762C1.02734 14.5078 1 14.4212 1 14.3164C1 14.1842 1.05241 14.0726 1.15723 13.9814C1.33496 13.8356 1.51725 13.6898 1.7041 13.5439C1.89095 13.3936 2.06413 13.234 2.22363 13.0654C2.36491 12.9196 2.46061 12.7578 2.51074 12.5801C2.56543 12.3978 2.60417 12.2087 2.62695 12.0127C2.63151 11.9762 2.63379 11.9466 2.63379 11.9238C2.63379 11.901 2.63379 11.8851 2.63379 11.876V11.8623C2.62923 11.8623 2.62695 11.86 2.62695 11.8555C2.62695 11.8464 2.62695 11.8327 2.62695 11.8145C2.63151 11.7917 2.63835 11.7552 2.64746 11.7051C2.6748 11.4635 2.74089 11.2334 2.8457 11.0146C2.95052 10.7913 3.08952 10.5931 3.2627 10.4199C3.4222 10.2604 3.60221 10.1328 3.80273 10.0371C4.00781 9.93685 4.21973 9.86165 4.43848 9.81152C5.45475 8.44434 6.54395 7.15234 7.70605 5.93555C8.86816 4.71875 10.1077 3.56803 11.4248 2.4834L12.7646 1.38281C12.9014 1.26888 13.0495 1.18001 13.209 1.11621C13.373 1.04785 13.5439 1.01367 13.7217 1.01367C13.8903 1.01367 14.0521 1.04785 14.207 1.11621C14.362 1.18001 14.4964 1.26888 14.6104 1.38281C14.7288 1.49219 14.8223 1.62435 14.8906 1.7793C14.959 1.92969 14.9932 2.08919 14.9932 2.25781ZM14.1182 2.26465C14.1182 2.15983 14.0771 2.07096 13.9951 1.99805C13.9131 1.92513 13.8219 1.88867 13.7217 1.88867C13.6442 1.88867 13.5736 1.90462 13.5098 1.93652C13.446 1.96842 13.3844 2.00944 13.3252 2.05957L11.9785 3.16016C10.7663 4.14909 9.6224 5.19954 8.54688 6.31152C7.47591 7.4235 6.46419 8.59928 5.51172 9.83887C5.84896 9.93913 6.14062 10.1077 6.38672 10.3447C6.63281 10.5771 6.81966 10.8574 6.94727 11.1855C8.05469 10.1556 9.09603 9.07324 10.0713 7.93848C11.0511 6.79915 11.9671 5.60286 12.8193 4.34961L13.9746 2.6543C14.0111 2.59961 14.043 2.53809 14.0703 2.46973C14.1022 2.40137 14.1182 2.33301 14.1182 2.26465ZM6.25 12.2041C6.25 12.0583 6.23405 11.9124 6.20215 11.7666C6.1748 11.6162 6.12923 11.4772 6.06543 11.3496C6.00163 11.2174 5.91732 11.099 5.8125 10.9941C5.71224 10.8893 5.58691 10.8073 5.43652 10.748C5.37728 10.7253 5.2998 10.7002 5.2041 10.6729C5.11296 10.641 5.03548 10.625 4.97168 10.625C4.78027 10.625 4.58203 10.6615 4.37695 10.7344C4.17643 10.8073 4.00781 10.9098 3.87109 11.042C3.7207 11.1878 3.625 11.3473 3.58398 11.5205C3.54297 11.6891 3.51562 11.8714 3.50195 12.0674C3.49284 12.2132 3.47005 12.3636 3.43359 12.5186C3.39714 12.6735 3.35384 12.8193 3.30371 12.9561C3.25358 13.0837 3.19889 13.1976 3.13965 13.2979C3.08496 13.3981 3.02116 13.4915 2.94824 13.5781C2.87533 13.6602 2.79557 13.7422 2.70898 13.8242C2.6224 13.9017 2.52897 13.9814 2.42871 14.0635C2.55176 14.0817 2.6748 14.0977 2.79785 14.1113C2.92546 14.1204 3.05306 14.125 3.18066 14.125C3.37207 14.125 3.57943 14.1113 3.80273 14.084C4.0306 14.0521 4.25846 14.0042 4.48633 13.9404C4.71419 13.8766 4.93294 13.7969 5.14258 13.7012C5.35677 13.6009 5.5459 13.4801 5.70996 13.3389C5.87402 13.193 6.00391 13.0267 6.09961 12.8398C6.19987 12.653 6.25 12.4411 6.25 12.2041Z" fill="black" fill-opacity="0.4458"/>
</svg>
