<svg width="16" height="16" viewBox="0 0 16 16" fill="none" xmlns="http://www.w3.org/2000/svg">
<path d="M1 12.7031C1 12.3932 1.05697 12.0993 1.1709 11.8213C1.28939 11.5433 1.45801 11.2949 1.67676 11.0762L6.37988 6.37305C6.34342 6.21354 6.31152 6.05176 6.28418 5.8877C6.26139 5.71908 6.25 5.55046 6.25 5.38184C6.25 4.97624 6.30241 4.58659 6.40723 4.21289C6.51204 3.83919 6.65788 3.49056 6.84473 3.16699C7.03613 2.84342 7.264 2.54948 7.52832 2.28516C7.79264 2.01628 8.08659 1.78841 8.41016 1.60156C8.73372 1.41016 9.08236 1.26204 9.45605 1.15723C9.82975 1.05241 10.2194 1 10.625 1C10.707 1 10.8164 1.00684 10.9531 1.02051C11.0944 1.03418 11.2448 1.05469 11.4043 1.08203C11.5684 1.10938 11.7347 1.14583 11.9033 1.19141C12.0719 1.23698 12.2223 1.29167 12.3545 1.35547C12.4912 1.41927 12.6029 1.49447 12.6895 1.58105C12.776 1.66764 12.8193 1.76335 12.8193 1.86816C12.8193 1.98665 12.776 2.08919 12.6895 2.17578L10.3721 4.5L11.5 5.62793L13.8242 3.31055C13.9108 3.22396 14.0133 3.18066 14.1318 3.18066C14.2412 3.18066 14.3369 3.22396 14.4189 3.31055C14.5055 3.39714 14.5807 3.50879 14.6445 3.64551C14.7083 3.78223 14.763 3.9349 14.8086 4.10352C14.8542 4.26758 14.8906 4.43164 14.918 4.5957C14.9453 4.75521 14.9658 4.9056 14.9795 5.04688C14.9932 5.18359 15 5.29297 15 5.375C15 5.98112 14.8861 6.55078 14.6582 7.08398C14.4303 7.61263 14.1182 8.0752 13.7217 8.47168C13.3252 8.86816 12.8604 9.18034 12.3271 9.4082C11.7985 9.63607 11.2311 9.75 10.625 9.75C10.4564 9.75 10.2878 9.73861 10.1191 9.71582C9.95508 9.68848 9.79102 9.65658 9.62695 9.62012L4.92383 14.3301C4.82812 14.4258 4.72103 14.5146 4.60254 14.5967C4.48405 14.6787 4.35645 14.7516 4.21973 14.8154C4.08757 14.8747 3.95085 14.9225 3.80957 14.959C3.67285 14.9909 3.53613 15.0068 3.39941 15.0068C3.06673 15.0068 2.75456 14.9521 2.46289 14.8428C2.17122 14.7288 1.91602 14.5716 1.69727 14.3711C1.48307 14.166 1.31217 13.9222 1.18457 13.6396C1.06152 13.3571 1 13.0449 1 12.7031ZM9.50391 8.69043C9.54948 8.69043 9.59277 8.69727 9.63379 8.71094C9.79785 8.76107 9.96191 8.80208 10.126 8.83398C10.29 8.86133 10.4587 8.875 10.6318 8.875C11.1149 8.875 11.5684 8.78385 11.9922 8.60156C12.416 8.41471 12.7852 8.16406 13.0996 7.84961C13.4186 7.5306 13.6693 7.15918 13.8516 6.73535C14.0339 6.31152 14.125 5.85807 14.125 5.375C14.125 5.20638 14.1113 5.04004 14.084 4.87598C14.0612 4.71191 14.0247 4.55013 13.9746 4.39062L11.8076 6.55762C11.7256 6.63965 11.623 6.68066 11.5 6.68066C11.377 6.68066 11.2744 6.63965 11.1924 6.55762L9.44238 4.80762C9.35579 4.72103 9.3125 4.61849 9.3125 4.5C9.3125 4.38151 9.35579 4.27897 9.44238 4.19238L11.6094 2.02539C11.4499 1.97526 11.2881 1.9388 11.124 1.91602C10.96 1.88867 10.7936 1.875 10.625 1.875C10.1419 1.875 9.68848 1.96842 9.26465 2.15527C8.84082 2.33757 8.4694 2.58822 8.15039 2.90723C7.83594 3.22168 7.58529 3.59082 7.39844 4.01465C7.21615 4.43848 7.125 4.89193 7.125 5.375C7.125 5.54818 7.13867 5.7168 7.16602 5.88086C7.19792 6.04036 7.23893 6.20215 7.28906 6.36621C7.30273 6.40723 7.30957 6.45052 7.30957 6.49609C7.30957 6.61914 7.26628 6.72396 7.17969 6.81055L2.29199 11.6982C2.15983 11.8304 2.05729 11.9831 1.98438 12.1562C1.91146 12.3294 1.875 12.5117 1.875 12.7031C1.875 12.8991 1.91146 13.0837 1.98438 13.2568C2.06185 13.4255 2.16439 13.5758 2.29199 13.708C2.42415 13.8356 2.57454 13.9382 2.74316 14.0156C2.91634 14.0885 3.10091 14.125 3.29688 14.125C3.48828 14.125 3.67057 14.0885 3.84375 14.0156C4.01693 13.9427 4.1696 13.8402 4.30176 13.708L9.18945 8.82031C9.27604 8.73372 9.38086 8.69043 9.50391 8.69043Z" fill="black" fill-opacity="0.6063"/>
</svg>
