<svg width="16" height="16" viewBox="0 0 16 16" fill="none" xmlns="http://www.w3.org/2000/svg">
<path d="M2.71582 13.25C2.48796 13.25 2.27148 13.2021 2.06641 13.1064C1.85677 13.0153 1.67448 12.89 1.51953 12.7305C1.36003 12.5755 1.2347 12.3932 1.14355 12.1836C1.04785 11.9785 1 11.762 1 11.5342L1 4.46582C1 4.23796 1.04785 4.01921 1.14355 3.80957C1.2347 3.60449 1.36003 3.4222 1.51953 3.2627C1.67448 3.10775 1.85677 2.98242 2.06641 2.88672C2.27148 2.79557 2.48796 2.75 2.71582 2.75L13.2842 2.75C13.512 2.75 13.7308 2.79557 13.9404 2.88672C14.1455 2.98242 14.3278 3.10775 14.4873 3.2627C14.6423 3.4222 14.7676 3.60449 14.8633 3.80957C14.9544 4.01921 15 4.23796 15 4.46582L15 11.5342C15 11.762 14.9544 11.9785 14.8633 12.1836C14.7676 12.3932 14.6423 12.5755 14.4873 12.7305C14.3278 12.89 14.1455 13.0153 13.9404 13.1064C13.7308 13.2021 13.512 13.25 13.2842 13.25L2.71582 13.25ZM13.25 12.375C13.373 12.375 13.487 12.3522 13.5918 12.3066C13.6966 12.2611 13.79 12.1973 13.8721 12.1152C13.9495 12.0378 14.0111 11.9466 14.0566 11.8418C14.1022 11.737 14.125 11.623 14.125 11.5L14.125 7.125L1.875 7.125L1.875 11.5C1.875 11.6185 1.89779 11.7301 1.94336 11.835C1.98893 11.9443 2.05273 12.0378 2.13477 12.1152C2.21224 12.1973 2.30566 12.2611 2.41504 12.3066C2.51986 12.3522 2.63151 12.375 2.75 12.375L13.25 12.375ZM2.75 3.625C2.62695 3.625 2.51302 3.64779 2.4082 3.69336C2.30339 3.73893 2.21224 3.80046 2.13477 3.87793C2.05273 3.95996 1.98893 4.05339 1.94336 4.1582C1.89779 4.26302 1.875 4.37695 1.875 4.5V6.25L14.125 6.25V4.5C14.125 4.37695 14.1022 4.26074 14.0566 4.15137C14.0111 4.04655 13.9495 3.9554 13.8721 3.87793C13.7946 3.80046 13.7035 3.73893 13.5986 3.69336C13.4893 3.64779 13.373 3.625 13.25 3.625L2.75 3.625Z" fill="white"/>
</svg>
