<svg width="16" height="16" viewBox="0 0 16 16" fill="none" xmlns="http://www.w3.org/2000/svg">
<path d="M5.1084 12.1904C4.94889 12.1904 4.79167 12.2201 4.63672 12.2793C4.48177 12.3385 4.32682 12.4023 4.17188 12.4707C4.02148 12.5391 3.86882 12.6029 3.71387 12.6621C3.55892 12.7214 3.40169 12.751 3.24219 12.751C3.10547 12.751 2.98014 12.7236 2.86621 12.6689C2.75228 12.6097 2.64974 12.5277 2.55859 12.4229C2.49935 12.3545 2.42871 12.2633 2.34668 12.1494C2.26921 12.0355 2.18717 11.9102 2.10059 11.7734C2.014 11.6367 1.92741 11.4932 1.84082 11.3428C1.75423 11.1878 1.67676 11.0397 1.6084 10.8984C1.5446 10.7526 1.49219 10.6159 1.45117 10.4883C1.41016 10.3607 1.38965 10.2536 1.38965 10.167C1.38965 10.0029 1.43066 9.8571 1.5127 9.72949C1.59473 9.59733 1.69499 9.47884 1.81348 9.37402C1.93652 9.26465 2.06868 9.16211 2.20996 9.06641C2.35579 8.9707 2.48796 8.87044 2.60645 8.76562C2.72949 8.65625 2.83203 8.54232 2.91406 8.42383C2.99609 8.30078 3.03711 8.15951 3.03711 8C3.03711 7.84505 2.99609 7.70605 2.91406 7.58301C2.83203 7.45996 2.72949 7.34603 2.60645 7.24121C2.4834 7.13184 2.35124 7.02702 2.20996 6.92676C2.06868 6.8265 1.93652 6.72168 1.81348 6.6123C1.69043 6.49837 1.58789 6.3776 1.50586 6.25C1.42383 6.1224 1.38281 5.97656 1.38281 5.8125C1.38281 5.73047 1.40332 5.62565 1.44434 5.49805C1.48991 5.37044 1.54688 5.23372 1.61523 5.08789C1.68359 4.94206 1.76107 4.79395 1.84766 4.64355C1.9388 4.48861 2.02767 4.34277 2.11426 4.20605C2.2054 4.06478 2.29199 3.93717 2.37402 3.82324C2.45605 3.70931 2.52669 3.62044 2.58594 3.55664C2.67708 3.45638 2.77962 3.37891 2.89355 3.32422C3.01204 3.26953 3.13737 3.24219 3.26953 3.24219C3.42904 3.24219 3.58398 3.27181 3.73438 3.33105C3.88477 3.3903 4.03516 3.45638 4.18555 3.5293C4.33594 3.59766 4.48633 3.66146 4.63672 3.7207C4.79167 3.77995 4.94889 3.80957 5.1084 3.80957C5.31348 3.80957 5.48893 3.74805 5.63477 3.625C5.78516 3.4974 5.87858 3.33333 5.91504 3.13281C5.95605 2.90951 5.99707 2.6862 6.03809 2.46289C6.0791 2.23958 6.12012 2.01628 6.16113 1.79297C6.19759 1.60156 6.27962 1.44434 6.40723 1.32129C6.53939 1.19824 6.70117 1.11849 6.89258 1.08203C7.07487 1.05013 7.25944 1.02962 7.44629 1.02051C7.63314 1.00684 7.81771 1 8 1C8.19141 1 8.38281 1.00684 8.57422 1.02051C8.76562 1.03418 8.95475 1.05924 9.1416 1.0957C9.33301 1.13216 9.49023 1.21191 9.61328 1.33496C9.73633 1.45801 9.81608 1.61523 9.85254 1.80664C9.89355 2.02995 9.93229 2.25098 9.96875 2.46973C10.0052 2.68848 10.0439 2.90951 10.085 3.13281C10.1214 3.32878 10.2148 3.49056 10.3652 3.61816C10.5156 3.74577 10.6911 3.80957 10.8916 3.80957C11.0511 3.80957 11.2083 3.77995 11.3633 3.7207C11.5182 3.66146 11.6709 3.59766 11.8213 3.5293C11.9762 3.46094 12.1312 3.39714 12.2861 3.33789C12.4411 3.27865 12.5983 3.24902 12.7578 3.24902C12.8991 3.24902 13.0244 3.27865 13.1338 3.33789C13.2477 3.39258 13.3503 3.47233 13.4414 3.57715C13.5007 3.64551 13.569 3.73665 13.6465 3.85059C13.7285 3.96452 13.8128 4.08984 13.8994 4.22656C13.986 4.36328 14.0726 4.50911 14.1592 4.66406C14.2458 4.81445 14.321 4.96257 14.3848 5.1084C14.4531 5.24967 14.5078 5.38411 14.5488 5.51172C14.5898 5.63932 14.6104 5.74642 14.6104 5.83301C14.6104 6.00163 14.5693 6.14974 14.4873 6.27734C14.4053 6.40495 14.3027 6.52344 14.1797 6.63281C14.0612 6.73763 13.929 6.83789 13.7832 6.93359C13.6419 7.0293 13.5098 7.13184 13.3867 7.24121C13.2682 7.34603 13.168 7.45996 13.0859 7.58301C13.0039 7.7015 12.9629 7.84049 12.9629 8C12.9629 8.15495 13.0039 8.29395 13.0859 8.41699C13.168 8.54004 13.2705 8.65625 13.3936 8.76562C13.5166 8.87044 13.6488 8.97298 13.79 9.07324C13.9313 9.1735 14.0635 9.2806 14.1865 9.39453C14.3096 9.50391 14.4121 9.6224 14.4941 9.75C14.5762 9.8776 14.6172 10.0234 14.6172 10.1875C14.6172 10.2786 14.5944 10.388 14.5488 10.5156C14.5078 10.6387 14.4531 10.7731 14.3848 10.9189C14.3164 11.0648 14.2367 11.2129 14.1455 11.3633C14.0589 11.5137 13.9701 11.6572 13.8789 11.7939C13.7923 11.9307 13.7057 12.056 13.6191 12.1699C13.5371 12.2839 13.4665 12.375 13.4072 12.4434C13.3161 12.5436 13.2135 12.6211 13.0996 12.6758C12.9902 12.7305 12.8695 12.7578 12.7373 12.7578C12.5869 12.7578 12.432 12.7282 12.2725 12.6689C12.1175 12.6097 11.9626 12.5459 11.8076 12.4775C11.6527 12.4046 11.4977 12.3385 11.3428 12.2793C11.1878 12.2201 11.0374 12.1904 10.8916 12.1904C10.6911 12.1904 10.5361 12.2314 10.4268 12.3135C10.3174 12.3955 10.2331 12.5026 10.1738 12.6348C10.1146 12.7624 10.0713 12.9059 10.0439 13.0654C10.0212 13.2204 9.99609 13.3708 9.96875 13.5166C9.94596 13.6351 9.92318 13.7513 9.90039 13.8652C9.88216 13.9746 9.86165 14.0885 9.83887 14.207C9.80241 14.403 9.72038 14.5625 9.59277 14.6855C9.46517 14.804 9.30339 14.8815 9.10742 14.918C8.92513 14.9499 8.74056 14.9727 8.55371 14.9863C8.37142 14.9954 8.18685 15 8 15C7.80859 15 7.61719 14.9932 7.42578 14.9795C7.23438 14.9658 7.04525 14.9408 6.8584 14.9043C6.66699 14.8678 6.50977 14.7881 6.38672 14.665C6.26367 14.5374 6.18392 14.3779 6.14746 14.1865C6.10645 13.9678 6.06771 13.749 6.03125 13.5303C5.99479 13.307 5.95605 13.0859 5.91504 12.8672C5.87858 12.6712 5.78516 12.5094 5.63477 12.3818C5.48438 12.2542 5.30892 12.1904 5.1084 12.1904ZM8.97754 14.0566C8.99577 13.9564 9.01628 13.8333 9.03906 13.6875C9.06185 13.5371 9.08691 13.3844 9.11426 13.2295C9.1416 13.0745 9.17122 12.9264 9.20312 12.7852C9.23503 12.6439 9.26693 12.5299 9.29883 12.4434C9.42643 12.1016 9.63151 11.8281 9.91406 11.623C10.1966 11.418 10.5225 11.3154 10.8916 11.3154C11.0146 11.3154 11.1559 11.3382 11.3154 11.3838C11.4795 11.4248 11.6458 11.4749 11.8145 11.5342C11.9876 11.5934 12.154 11.6549 12.3135 11.7188C12.473 11.7826 12.6143 11.8372 12.7373 11.8828C12.9515 11.6276 13.1406 11.3587 13.3047 11.0762C13.4688 10.7891 13.6123 10.4928 13.7354 10.1875V10.1807L12.6895 9.29199C12.498 9.13249 12.3499 8.94108 12.2451 8.71777C12.1403 8.48991 12.0879 8.25065 12.0879 8C12.0879 7.74935 12.1403 7.51009 12.2451 7.28223C12.3545 7.05436 12.5049 6.86068 12.6963 6.70117L13.7285 5.83984V5.83301C13.7285 5.82845 13.7194 5.80339 13.7012 5.75781C13.6829 5.70768 13.6715 5.68034 13.667 5.67578C13.5576 5.39323 13.4255 5.12435 13.2705 4.86914C13.1201 4.60938 12.9492 4.361 12.7578 4.12402H12.751L11.4658 4.58887C11.2835 4.65267 11.0967 4.68457 10.9053 4.68457C10.5954 4.68457 10.3105 4.60938 10.0508 4.45898C9.83203 4.33594 9.64974 4.17188 9.50391 3.9668C9.36263 3.76172 9.26921 3.53613 9.22363 3.29004L8.99121 1.95703C8.66309 1.90234 8.33268 1.875 8 1.875C7.83594 1.875 7.67188 1.88184 7.50781 1.89551C7.34375 1.90462 7.18197 1.92057 7.02246 1.94336C6.98145 2.17122 6.94271 2.39681 6.90625 2.62012C6.86979 2.84342 6.8265 3.06673 6.77637 3.29004C6.73535 3.49056 6.66471 3.67741 6.56445 3.85059C6.46419 4.01921 6.34115 4.16504 6.19531 4.28809C6.04948 4.41113 5.88542 4.50911 5.70312 4.58203C5.52083 4.65039 5.32487 4.68457 5.11523 4.68457C4.91016 4.68457 4.71647 4.65039 4.53418 4.58203H4.52734L3.26953 4.11719H3.2627C3.05306 4.37695 2.86393 4.64811 2.69531 4.93066C2.52669 5.20866 2.38314 5.5026 2.26465 5.8125V5.81934L3.31055 6.70801C3.50195 6.86751 3.65007 7.0612 3.75488 7.28906C3.8597 7.51237 3.91211 7.74935 3.91211 8C3.91211 8.25065 3.85742 8.48991 3.74805 8.71777C3.64323 8.94564 3.49512 9.13932 3.30371 9.29883L2.27148 10.1602V10.167C2.27148 10.1715 2.2806 10.1989 2.29883 10.249C2.31706 10.2946 2.32845 10.3197 2.33301 10.3242C2.44238 10.6068 2.57227 10.8779 2.72266 11.1377C2.8776 11.3929 3.05078 11.639 3.24219 11.876H3.24902L4.53418 11.4111C4.71647 11.3473 4.90332 11.3154 5.09473 11.3154C5.40462 11.3154 5.68945 11.3906 5.94922 11.541C6.16797 11.6641 6.34798 11.8281 6.48926 12.0332C6.63509 12.2383 6.73079 12.4639 6.77637 12.71L7.00879 14.043C7.33691 14.0977 7.66732 14.125 8 14.125C8.16406 14.125 8.32812 14.1204 8.49219 14.1113C8.65625 14.0977 8.81803 14.0794 8.97754 14.0566ZM5.375 8C5.375 7.63542 5.44336 7.29362 5.58008 6.97461C5.7168 6.6556 5.90365 6.3776 6.14062 6.14062C6.3776 5.90365 6.6556 5.7168 6.97461 5.58008C7.29362 5.44336 7.63542 5.375 8 5.375C8.36458 5.375 8.70638 5.44336 9.02539 5.58008C9.3444 5.7168 9.6224 5.90365 9.85938 6.14062C10.0964 6.3776 10.2832 6.6556 10.4199 6.97461C10.5566 7.29362 10.625 7.63542 10.625 8C10.625 8.36458 10.5566 8.70638 10.4199 9.02539C10.2832 9.3444 10.0964 9.6224 9.85938 9.85938C9.6224 10.0964 9.3444 10.2832 9.02539 10.4199C8.70638 10.5566 8.36458 10.625 8 10.625C7.63542 10.625 7.29362 10.5566 6.97461 10.4199C6.6556 10.2832 6.3776 10.0964 6.14062 9.85938C5.90365 9.6224 5.7168 9.3444 5.58008 9.02539C5.44336 8.70638 5.375 8.36458 5.375 8ZM9.75 8C9.75 7.75846 9.70443 7.53288 9.61328 7.32324C9.52214 7.10905 9.39681 6.9222 9.2373 6.7627C9.0778 6.60319 8.89095 6.47786 8.67676 6.38672C8.46712 6.29557 8.24154 6.25 8 6.25C7.75846 6.25 7.5306 6.29557 7.31641 6.38672C7.10677 6.47786 6.9222 6.60319 6.7627 6.7627C6.60319 6.9222 6.47786 7.10905 6.38672 7.32324C6.29557 7.53288 6.25 7.75846 6.25 8C6.25 8.24154 6.29557 8.4694 6.38672 8.68359C6.47786 8.89323 6.60319 9.0778 6.7627 9.2373C6.9222 9.39681 7.10677 9.52214 7.31641 9.61328C7.5306 9.70443 7.75846 9.75 8 9.75C8.24154 9.75 8.46712 9.70443 8.67676 9.61328C8.89095 9.52214 9.0778 9.39681 9.2373 9.2373C9.39681 9.0778 9.52214 8.89323 9.61328 8.68359C9.70443 8.4694 9.75 8.24154 9.75 8Z" fill="white"/>
</svg>
