<svg width="12" height="12" viewBox="0 0 12 12" fill="none" xmlns="http://www.w3.org/2000/svg">
<path d="M1.00195 6.49805C1.00195 6.36133 1.05078 6.24414 1.14844 6.14648C1.24609 6.04883 1.36328 6 1.5 6C1.63672 6 1.75391 6.04883 1.85156 6.14648L4.5 8.79492L10.1484 3.14648C10.2461 3.04883 10.3633 3 10.5 3C10.5703 3 10.6348 3.01367 10.6934 3.04102C10.7559 3.06445 10.8086 3.09961 10.8516 3.14648C10.8984 3.18945 10.9355 3.24219 10.9629 3.30469C10.9902 3.36328 11.0039 3.42773 11.0039 3.49805C11.0039 3.63477 10.9531 3.75391 10.8516 3.85547L4.85156 9.85547C4.75391 9.95312 4.63672 10.002 4.5 10.002C4.36328 10.002 4.24609 9.95312 4.14844 9.85547L1.14844 6.85547C1.05078 6.75781 1.00195 6.63867 1.00195 6.49805Z" fill="white"/>
</svg>
