<svg width="12" height="12" viewBox="0 0 12 12" fill="none" xmlns="http://www.w3.org/2000/svg">
<path d="M1.99805 4.5C1.99805 4.42969 2.01172 4.36523 2.03906 4.30664C2.06641 4.24414 2.10156 4.19141 2.14453 4.14844C2.19141 4.10156 2.24414 4.06445 2.30273 4.03711C2.36523 4.00977 2.43164 3.99609 2.50195 3.99609C2.57617 3.99609 2.64062 4.00977 2.69531 4.03711C2.75 4.06055 2.80273 4.09766 2.85352 4.14844L6 7.29492L9.14648 4.14844C9.24805 4.04688 9.36523 3.99609 9.49805 3.99609C9.56836 3.99609 9.63281 4.00977 9.69141 4.03711C9.75391 4.06445 9.80664 4.10156 9.84961 4.14844C9.89648 4.19141 9.93359 4.24414 9.96094 4.30664C9.98828 4.36523 10.002 4.42969 10.002 4.5C10.002 4.63672 9.95312 4.75391 9.85547 4.85156L6.35156 8.35547C6.25391 8.45312 6.13672 8.50195 6 8.50195C5.86328 8.50195 5.74609 8.45312 5.64844 8.35547L2.14453 4.85156C2.04688 4.75391 1.99805 4.63672 1.99805 4.5Z" fill="black" fill-opacity="0.3614"/>
</svg>
