<svg width="16" height="16" viewBox="0 0 16 16" fill="none" xmlns="http://www.w3.org/2000/svg">
<path d="M14.5625 3.1875C14.5625 3.28776 14.542 3.36751 14.501 3.42676C14.4645 3.486 14.4144 3.53158 14.3506 3.56348C14.2868 3.59082 14.2161 3.60905 14.1387 3.61816C14.0612 3.62728 13.9814 3.63184 13.8994 3.63184C13.8538 3.63184 13.8083 3.63184 13.7627 3.63184C13.7171 3.62728 13.6761 3.625 13.6396 3.625L12.5049 13.4482C12.4775 13.667 12.4137 13.8721 12.3135 14.0635C12.2132 14.2503 12.0856 14.4144 11.9307 14.5557C11.7757 14.6924 11.598 14.8018 11.3975 14.8838C11.1969 14.9613 10.9873 15 10.7686 15H5.23145C5.0127 15 4.80306 14.9613 4.60254 14.8838C4.40202 14.8018 4.22428 14.6924 4.06934 14.5557C3.91439 14.4144 3.78678 14.2503 3.68652 14.0635C3.58626 13.8721 3.52246 13.667 3.49512 13.4482L2.36035 3.625C2.31478 3.625 2.26921 3.62728 2.22363 3.63184C2.17806 3.63184 2.13249 3.63184 2.08691 3.63184C2.00944 3.63184 1.93197 3.62728 1.85449 3.61816C1.77702 3.60905 1.70638 3.58854 1.64258 3.55664C1.58333 3.52474 1.5332 3.47917 1.49219 3.41992C1.45573 3.36068 1.4375 3.2832 1.4375 3.1875C1.4375 3.06901 1.48079 2.96647 1.56738 2.87988C1.65397 2.79329 1.75651 2.75 1.875 2.75H5.85352C5.89909 2.49935 5.98796 2.26693 6.12012 2.05273C6.25684 1.83854 6.4209 1.65397 6.6123 1.49902C6.80827 1.33952 7.02474 1.21647 7.26172 1.12988C7.4987 1.04329 7.74479 1 8 1C8.25521 1 8.5013 1.04329 8.73828 1.12988C8.97526 1.21647 9.18945 1.33952 9.38086 1.49902C9.57682 1.65397 9.74089 1.83854 9.87305 2.05273C10.0098 2.26693 10.1009 2.49935 10.1465 2.75H14.125C14.2435 2.75 14.346 2.79329 14.4326 2.87988C14.5192 2.96647 14.5625 3.06901 14.5625 3.1875ZM6.7627 2.75H9.2373C9.19173 2.61784 9.12793 2.49935 9.0459 2.39453C8.96387 2.28516 8.86816 2.19173 8.75879 2.11426C8.64941 2.03678 8.53092 1.97754 8.40332 1.93652C8.27572 1.89551 8.14128 1.875 8 1.875C7.85872 1.875 7.72428 1.89551 7.59668 1.93652C7.46908 1.97754 7.35059 2.03678 7.24121 2.11426C7.13184 2.19173 7.03613 2.28516 6.9541 2.39453C6.87207 2.49935 6.80827 2.61784 6.7627 2.75ZM12.7578 3.625H3.24219L4.36328 13.3525C4.39062 13.5804 4.48405 13.7673 4.64355 13.9131C4.80762 14.0544 5.00358 14.125 5.23145 14.125H10.7686C10.8779 14.125 10.9827 14.1068 11.083 14.0703C11.1833 14.0293 11.2721 13.9746 11.3496 13.9062C11.4271 13.8379 11.4909 13.7559 11.541 13.6602C11.5911 13.5645 11.623 13.4619 11.6367 13.3525L12.7578 3.625ZM6.25 11.0625V6.6875C6.25 6.56901 6.29329 6.46647 6.37988 6.37988C6.46647 6.29329 6.56901 6.25 6.6875 6.25C6.80599 6.25 6.90853 6.29329 6.99512 6.37988C7.08171 6.46647 7.125 6.56901 7.125 6.6875V11.0625C7.125 11.181 7.08171 11.2835 6.99512 11.3701C6.90853 11.4567 6.80599 11.5 6.6875 11.5C6.56901 11.5 6.46647 11.4567 6.37988 11.3701C6.29329 11.2835 6.25 11.181 6.25 11.0625ZM8.875 11.0625V6.6875C8.875 6.56901 8.91829 6.46647 9.00488 6.37988C9.09147 6.29329 9.19401 6.25 9.3125 6.25C9.43099 6.25 9.53353 6.29329 9.62012 6.37988C9.70671 6.46647 9.75 6.56901 9.75 6.6875V11.0625C9.75 11.181 9.70671 11.2835 9.62012 11.3701C9.53353 11.4567 9.43099 11.5 9.3125 11.5C9.19401 11.5 9.09147 11.4567 9.00488 11.3701C8.91829 11.2835 8.875 11.181 8.875 11.0625Z" fill="white" fill-opacity="0.3628"/>
</svg>
