<svg width="16" height="16" viewBox="0 0 16 16" fill="none" xmlns="http://www.w3.org/2000/svg">
<path d="M13.25 1.4375V5.8125C13.25 5.93099 13.2067 6.03353 13.1201 6.12012C13.0335 6.20671 12.931 6.25 12.8125 6.25H8.4375C8.31901 6.25 8.21647 6.20671 8.12988 6.12012C8.04329 6.03353 8 5.93099 8 5.8125C8 5.69401 8.04329 5.59147 8.12988 5.50488C8.21647 5.41829 8.31901 5.375 8.4375 5.375H11.7188L8.49219 2.68164C8.16406 2.4082 7.80176 2.2054 7.40527 2.07324C7.01335 1.94108 6.60547 1.875 6.18164 1.875C5.8763 1.875 5.58008 1.91829 5.29297 2.00488C5.00586 2.08691 4.7347 2.2054 4.47949 2.36035C4.22428 2.51074 3.98958 2.69303 3.77539 2.90723C3.56576 3.11686 3.38346 3.34928 3.22852 3.60449C3.07812 3.8597 2.95964 4.13086 2.87305 4.41797C2.79102 4.70508 2.75 5.0013 2.75 5.30664C2.75 5.85352 2.85482 6.36165 3.06445 6.83105C3.27409 7.30046 3.59082 7.71289 4.01465 8.06836L11.3428 14.2275C11.4476 14.3187 11.5 14.4303 11.5 14.5625C11.5 14.681 11.4567 14.7835 11.3701 14.8701C11.2835 14.9567 11.181 15 11.0625 15C10.9577 15 10.8643 14.9658 10.7822 14.8975L3.4541 8.73828C2.94368 8.3099 2.55176 7.80859 2.27832 7.23438C2.00944 6.66016 1.875 6.04036 1.875 5.375C1.875 4.76888 1.98893 4.2015 2.2168 3.67285C2.44466 3.13965 2.75684 2.6748 3.15332 2.27832C3.5498 1.88184 4.01237 1.56966 4.54102 1.3418C5.07422 1.11393 5.64388 1 6.25 1C6.76042 1 7.25488 1.08659 7.7334 1.25977C8.21647 1.43294 8.65397 1.68359 9.0459 2.01172L12.375 4.78027V1.4375C12.375 1.31901 12.4183 1.21647 12.5049 1.12988C12.5915 1.04329 12.694 1 12.8125 1C12.931 1 13.0335 1.04329 13.1201 1.12988C13.2067 1.21647 13.25 1.31901 13.25 1.4375Z" fill="white" fill-opacity="0.3628"/>
</svg>
