<svg width="16" height="16" viewBox="0 0 16 16" fill="none" xmlns="http://www.w3.org/2000/svg">
<path d="M15 8C15 8.64714 14.9157 9.26921 14.7471 9.86621C14.583 10.4632 14.3483 11.0215 14.043 11.541C13.7422 12.056 13.3776 12.5277 12.9492 12.9561C12.5254 13.3799 12.0537 13.7445 11.5342 14.0498C11.0192 14.3506 10.4632 14.5853 9.86621 14.7539C9.26921 14.918 8.64714 15 8 15C7.35286 15 6.73079 14.918 6.13379 14.7539C5.53678 14.5853 4.97852 14.3506 4.45898 14.0498C3.93945 13.7445 3.46777 13.3799 3.04395 12.9561C2.62012 12.5322 2.25553 12.0605 1.9502 11.541C1.64941 11.0215 1.41471 10.4632 1.24609 9.86621C1.08203 9.26921 1 8.64714 1 8C1 7.35286 1.08203 6.73079 1.24609 6.13379C1.41471 5.53678 1.64941 4.98079 1.9502 4.46582C2.25553 3.94629 2.62012 3.47461 3.04395 3.05078C3.47233 2.6224 3.94401 2.25781 4.45898 1.95703C4.97852 1.65169 5.53678 1.41699 6.13379 1.25293C6.73079 1.08431 7.35286 1 8 1C8.50586 1 9.00033 1.05469 9.4834 1.16406C9.96647 1.26888 10.4313 1.42155 10.8779 1.62207C11.3245 1.82259 11.7461 2.07096 12.1426 2.36719C12.5436 2.66341 12.9128 2.99837 13.25 3.37207V1.4375C13.25 1.31901 13.2933 1.21647 13.3799 1.12988C13.4665 1.04329 13.569 1 13.6875 1C13.806 1 13.9085 1.04329 13.9951 1.12988C14.0817 1.21647 14.125 1.31901 14.125 1.4375C14.125 1.98893 14.125 2.53809 14.125 3.08496C14.1296 3.63184 14.1318 4.18099 14.1318 4.73242C14.1318 4.8099 14.1273 4.88737 14.1182 4.96484C14.109 5.03776 14.0885 5.10612 14.0566 5.16992C14.0247 5.22917 13.9792 5.2793 13.9199 5.32031C13.8607 5.35677 13.7832 5.375 13.6875 5.375H10.1875C10.069 5.375 9.96647 5.33171 9.87988 5.24512C9.79329 5.15853 9.75 5.05599 9.75 4.9375C9.75 4.81901 9.79329 4.71647 9.87988 4.62988C9.96647 4.54329 10.069 4.5 10.1875 4.5H13.0244C12.7373 4.08984 12.4069 3.72298 12.0332 3.39941C11.6641 3.07585 11.263 2.80241 10.8301 2.5791C10.3971 2.35124 9.94141 2.17806 9.46289 2.05957C8.98438 1.93652 8.49674 1.875 8 1.875C7.4349 1.875 6.8903 1.94792 6.36621 2.09375C5.84668 2.23958 5.35905 2.44694 4.90332 2.71582C4.45215 2.98014 4.03971 3.29915 3.66602 3.67285C3.29688 4.04199 2.97786 4.45443 2.70898 4.91016C2.44466 5.36133 2.23958 5.84896 2.09375 6.37305C1.94792 6.89258 1.875 7.4349 1.875 8C1.875 8.5651 1.94792 9.1097 2.09375 9.63379C2.23958 10.1533 2.44466 10.641 2.70898 11.0967C2.97331 11.5479 3.29232 11.9603 3.66602 12.334C4.03971 12.7077 4.45215 13.0267 4.90332 13.291C5.35905 13.5553 5.84668 13.7604 6.36621 13.9062C6.8903 14.0521 7.4349 14.125 8 14.125C8.55143 14.125 9.08464 14.0566 9.59961 13.9199C10.1191 13.7786 10.6045 13.5781 11.0557 13.3184C11.5114 13.054 11.9284 12.7327 12.3066 12.3545C12.6895 11.9762 13.0199 11.5501 13.2979 11.0762C13.5804 10.5931 13.7878 10.0986 13.9199 9.59277C14.0566 9.08691 14.125 8.55599 14.125 8C14.125 7.88151 14.1683 7.77897 14.2549 7.69238C14.3415 7.60579 14.444 7.5625 14.5625 7.5625C14.681 7.5625 14.7835 7.60579 14.8701 7.69238C14.9567 7.77897 15 7.88151 15 8Z" fill="white" fill-opacity="0.786"/>
</svg>
