<svg width="16" height="16" viewBox="0 0 16 16" fill="none" xmlns="http://www.w3.org/2000/svg">
<path d="M14.125 5.375C14.125 6.03125 13.986 6.65104 13.708 7.23438C13.4346 7.81315 13.0472 8.31445 12.5459 8.73828L5.21777 14.8975C5.13574 14.9658 5.04232 15 4.9375 15C4.81901 15 4.71647 14.9567 4.62988 14.8701C4.54329 14.7835 4.5 14.681 4.5 14.5625C4.5 14.4987 4.51367 14.4372 4.54102 14.3779C4.56836 14.3187 4.6071 14.2686 4.65723 14.2275L11.9854 8.06836C12.4092 7.71289 12.7259 7.30046 12.9355 6.83105C13.1452 6.36165 13.25 5.85352 13.25 5.30664C13.25 5.0013 13.2067 4.70508 13.1201 4.41797C13.0381 4.13086 12.9196 3.8597 12.7646 3.60449C12.6143 3.34928 12.432 3.11686 12.2178 2.90723C12.0081 2.69303 11.7757 2.51074 11.5205 2.36035C11.2653 2.2054 10.9941 2.08691 10.707 2.00488C10.4199 1.91829 10.1237 1.875 9.81836 1.875C9.38997 1.875 8.97982 1.94108 8.58789 2.07324C8.20052 2.2054 7.84277 2.4082 7.51465 2.68164L4.28125 5.375H7.5625C7.68099 5.375 7.78353 5.41829 7.87012 5.50488C7.95671 5.59147 8 5.69401 8 5.8125C8 5.93099 7.95671 6.03353 7.87012 6.12012C7.78353 6.20671 7.68099 6.25 7.5625 6.25H3.1875C3.06901 6.25 2.96647 6.20671 2.87988 6.12012C2.79329 6.03353 2.75 5.93099 2.75 5.8125V1.4375C2.75 1.31901 2.79329 1.21647 2.87988 1.12988C2.96647 1.04329 3.06901 1 3.1875 1C3.30599 1 3.40853 1.04329 3.49512 1.12988C3.58171 1.21647 3.625 1.31901 3.625 1.4375V4.78027L6.9541 2.01172C7.34603 1.68359 7.78125 1.43294 8.25977 1.25977C8.74284 1.08659 9.23958 1 9.75 1C10.3561 1 10.9235 1.11393 11.4521 1.3418C11.9854 1.56966 12.4502 1.88184 12.8467 2.27832C13.2432 2.6748 13.5553 3.13965 13.7832 3.67285C14.0111 4.2015 14.125 4.76888 14.125 5.375Z" fill="white"/>
</svg>
