<svg width="16" height="16" viewBox="0 0 16 16" fill="none" xmlns="http://www.w3.org/2000/svg">
<path d="M2.3125 14.125C2.19401 14.125 2.09147 14.0817 2.00488 13.9951C1.91829 13.9085 1.875 13.806 1.875 13.6875C1.875 13.6556 1.90007 13.5576 1.9502 13.3936C2.00033 13.2295 2.06185 13.0312 2.13477 12.7988C2.21224 12.5664 2.29427 12.318 2.38086 12.0537C2.47201 11.7848 2.55859 11.5296 2.64062 11.2881C2.72266 11.042 2.79557 10.8278 2.85938 10.6455C2.92318 10.4587 2.96647 10.3333 2.98926 10.2695C3.00749 10.2103 3.04395 10.1533 3.09863 10.0986L10.6455 2.55176C10.846 2.35124 11.0762 2.19629 11.3359 2.08691C11.6003 1.97754 11.8737 1.92285 12.1562 1.92285C12.4479 1.92285 12.7236 1.97982 12.9834 2.09375C13.2432 2.20312 13.471 2.35579 13.667 2.55176C13.863 2.74772 14.0156 2.97559 14.125 3.23535C14.2389 3.49512 14.2959 3.77083 14.2959 4.0625C14.2959 4.33138 14.2549 4.57064 14.1729 4.78027C14.0954 4.98535 13.9883 5.17676 13.8516 5.35449C13.7194 5.52767 13.5667 5.69629 13.3936 5.86035C13.2249 6.01986 13.0518 6.18848 12.874 6.36621C12.5641 6.25228 12.2406 6.16341 11.9033 6.09961L13.0518 4.95801C13.1702 4.83952 13.2614 4.7028 13.3252 4.54785C13.389 4.38835 13.4209 4.22656 13.4209 4.0625C13.4209 3.88477 13.3867 3.7207 13.3184 3.57031C13.2546 3.41536 13.1657 3.28092 13.0518 3.16699C12.9378 3.05306 12.8034 2.96419 12.6484 2.90039C12.498 2.83203 12.334 2.79785 12.1562 2.79785C11.9876 2.79785 11.8258 2.82975 11.6709 2.89355C11.516 2.95736 11.3792 3.0485 11.2607 3.16699L3.78906 10.6455L2.98242 13.0723L5.58691 12.416L6.09961 11.9033C6.16341 12.2406 6.25228 12.5641 6.36621 12.874C6.30697 12.9333 6.23861 13.0039 6.16113 13.0859C6.08822 13.1634 6.00846 13.2135 5.92188 13.2363L2.42188 14.1113C2.3763 14.1204 2.33984 14.125 2.3125 14.125ZM7.125 11.0625C7.125 10.5202 7.22754 10.0098 7.43262 9.53125C7.64225 9.05273 7.9248 8.63574 8.28027 8.28027C8.63574 7.9248 9.05273 7.64453 9.53125 7.43945C10.0098 7.22982 10.5202 7.125 11.0625 7.125C11.4225 7.125 11.7689 7.17285 12.1016 7.26855C12.4388 7.3597 12.7533 7.49186 13.0449 7.66504C13.3366 7.83366 13.6032 8.03874 13.8447 8.28027C14.0863 8.52181 14.2913 8.78841 14.46 9.08008C14.6331 9.37174 14.7653 9.6862 14.8564 10.0234C14.9521 10.3561 15 10.7025 15 11.0625C15 11.6048 14.8952 12.1152 14.6855 12.5938C14.4805 13.0723 14.2002 13.4893 13.8447 13.8447C13.4893 14.2002 13.0723 14.4827 12.5938 14.6924C12.1152 14.8975 11.6048 15 11.0625 15C10.5156 15 10.0029 14.8975 9.52441 14.6924C9.0459 14.4873 8.62891 14.207 8.27344 13.8516C7.91797 13.4961 7.6377 13.0791 7.43262 12.6006C7.22754 12.1221 7.125 11.6094 7.125 11.0625ZM12.6826 10.1123C12.6826 9.89355 12.6416 9.68392 12.5596 9.4834C12.4775 9.28288 12.3659 9.10514 12.2246 8.9502C12.0833 8.79525 11.9147 8.6722 11.7188 8.58105C11.5273 8.48535 11.32 8.4375 11.0967 8.4375C10.8506 8.4375 10.625 8.48307 10.4199 8.57422C10.2148 8.66081 10.0394 8.78158 9.89355 8.93652C9.75228 9.08691 9.64062 9.26693 9.55859 9.47656C9.48112 9.6862 9.44238 9.91178 9.44238 10.1533C9.44238 10.2718 9.48568 10.3743 9.57227 10.4609C9.65885 10.543 9.76139 10.584 9.87988 10.584C10.0075 10.584 10.1123 10.5384 10.1943 10.4473C10.2764 10.3561 10.3174 10.249 10.3174 10.126C10.3174 10.0166 10.3333 9.91178 10.3652 9.81152C10.4017 9.71126 10.4518 9.62467 10.5156 9.55176C10.5794 9.47884 10.6569 9.42188 10.748 9.38086C10.8392 9.33529 10.944 9.3125 11.0625 9.3125C11.1764 9.3125 11.279 9.33529 11.3701 9.38086C11.4613 9.42643 11.5387 9.48796 11.6025 9.56543C11.6709 9.6429 11.721 9.73177 11.7529 9.83203C11.7894 9.93229 11.8076 10.0371 11.8076 10.1465C11.8076 10.2467 11.778 10.3333 11.7188 10.4062C11.6595 10.4792 11.5866 10.5521 11.5 10.625C11.4134 10.6934 11.3177 10.764 11.2129 10.8369C11.1126 10.9098 11.0192 10.9964 10.9326 11.0967C10.846 11.1969 10.7731 11.3154 10.7139 11.4521C10.6546 11.5843 10.625 11.7461 10.625 11.9375C10.625 12.056 10.6683 12.1585 10.7549 12.2451C10.8415 12.3317 10.944 12.375 11.0625 12.375C11.222 12.375 11.3314 12.3271 11.3906 12.2314C11.4499 12.1312 11.4863 12.015 11.5 11.8828C11.5091 11.8008 11.5433 11.7279 11.6025 11.6641C11.6663 11.6003 11.7415 11.5365 11.8281 11.4727C11.9147 11.4043 12.0081 11.3337 12.1084 11.2607C12.2087 11.1833 12.2998 11.0921 12.3818 10.9873C12.4684 10.8825 12.5391 10.7594 12.5938 10.6182C12.653 10.4769 12.6826 10.3083 12.6826 10.1123ZM11.6094 13.2568C11.6094 13.1064 11.5547 12.9788 11.4453 12.874C11.3405 12.7646 11.2129 12.71 11.0625 12.71C10.9121 12.71 10.7822 12.7646 10.6729 12.874C10.568 12.9788 10.5156 13.1064 10.5156 13.2568C10.5156 13.4072 10.568 13.5371 10.6729 13.6465C10.7822 13.7513 10.9121 13.8037 11.0625 13.8037C11.2129 13.8037 11.3405 13.7513 11.4453 13.6465C11.5547 13.5371 11.6094 13.4072 11.6094 13.2568Z" fill="white"/>
</svg>
