<svg width="16" height="16" viewBox="0 0 16 16" fill="none" xmlns="http://www.w3.org/2000/svg">
<path d="M8 10.502C7.86328 10.502 7.74609 10.4531 7.64844 10.3555L4.14453 6.85156C4.04688 6.74609 3.99805 6.62891 3.99805 6.5C3.99805 6.36328 4.04688 6.24609 4.14453 6.14844C4.24609 6.04688 4.36523 5.99609 4.50195 5.99609C4.64258 5.99609 4.75977 6.04688 4.85352 6.14844L8 9.29492L11.1465 6.14844C11.248 6.04688 11.3652 5.99609 11.498 5.99609C11.6348 5.99609 11.7539 6.04688 11.8555 6.14844C11.9531 6.24219 12.002 6.35938 12.002 6.5C12.002 6.63672 11.9531 6.75391 11.8555 6.85156L8.35156 10.3555C8.25391 10.4531 8.13672 10.502 8 10.502Z" fill="white" fill-opacity="0.786"/>
</svg>
