<svg width="16" height="16" viewBox="0 0 16 16" fill="none" xmlns="http://www.w3.org/2000/svg">
<path d="M2.71582 13.25C2.48796 13.25 2.26921 13.2044 2.05957 13.1133C1.85449 13.0176 1.6722 12.8923 1.5127 12.7373C1.35775 12.5778 1.23242 12.3955 1.13672 12.1904C1.04557 11.9808 1 11.762 1 11.5342V4.46582C1 4.23796 1.04557 4.02148 1.13672 3.81641C1.23242 3.60677 1.35775 3.42448 1.5127 3.26953C1.6722 3.11003 1.85449 2.9847 2.05957 2.89355C2.26921 2.79785 2.48796 2.75 2.71582 2.75H13.2842C13.512 2.75 13.7285 2.79785 13.9336 2.89355C14.1432 2.9847 14.3255 3.11003 14.4805 3.26953C14.64 3.42448 14.7653 3.60677 14.8564 3.81641C14.9521 4.02148 15 4.23796 15 4.46582V11.5342C15 11.762 14.9521 11.9808 14.8564 12.1904C14.7653 12.3955 14.64 12.5778 14.4805 12.7373C14.3255 12.8923 14.1432 13.0176 13.9336 13.1133C13.7285 13.2044 13.512 13.25 13.2842 13.25H2.71582ZM9.75 12.375V3.625H2.75C2.62695 3.625 2.51302 3.64779 2.4082 3.69336C2.30339 3.73893 2.20996 3.80273 2.12793 3.88477C2.05046 3.96224 1.98893 4.05339 1.94336 4.1582C1.89779 4.26302 1.875 4.37695 1.875 4.5V11.5C1.875 11.623 1.89779 11.7393 1.94336 11.8486C1.98893 11.9535 2.05046 12.0446 2.12793 12.1221C2.2054 12.1995 2.29655 12.2611 2.40137 12.3066C2.51074 12.3522 2.62695 12.375 2.75 12.375H9.75ZM13.25 12.375C13.373 12.375 13.487 12.3522 13.5918 12.3066C13.6966 12.2611 13.7878 12.1995 13.8652 12.1221C13.9473 12.04 14.0111 11.9466 14.0566 11.8418C14.1022 11.737 14.125 11.623 14.125 11.5V4.5C14.125 4.38151 14.1022 4.26986 14.0566 4.16504C14.0111 4.05566 13.9473 3.96224 13.8652 3.88477C13.7878 3.80273 13.6943 3.73893 13.585 3.69336C13.4801 3.64779 13.3685 3.625 13.25 3.625H10.625V12.375H13.25ZM2.75 7.5625C2.75 7.44401 2.79329 7.34147 2.87988 7.25488L4.62988 5.50488C4.71647 5.41829 4.81901 5.375 4.9375 5.375C5.05599 5.375 5.15853 5.41829 5.24512 5.50488C5.33171 5.59147 5.375 5.69401 5.375 5.8125C5.375 5.93099 5.33171 6.03353 5.24512 6.12012L4.24707 7.125H8.4375C8.55599 7.125 8.65853 7.16829 8.74512 7.25488C8.83171 7.34147 8.875 7.44401 8.875 7.5625C8.875 7.68099 8.83171 7.78353 8.74512 7.87012C8.65853 7.95671 8.55599 8 8.4375 8H4.24707L5.24512 9.00488C5.33171 9.09147 5.375 9.19401 5.375 9.3125C5.375 9.43099 5.33171 9.53353 5.24512 9.62012C5.15853 9.70671 5.05599 9.75 4.9375 9.75C4.81901 9.75 4.71647 9.70671 4.62988 9.62012L2.87988 7.87012C2.79329 7.78353 2.75 7.68099 2.75 7.5625Z" fill="black" fill-opacity="0.8956"/>
</svg>
